<svg xmlns="http://www.w3.org/2000/svg" viewBox="0 0 1920 2160"><defs><style>.cls-1{opacity:0.5;}.cls-2{fill:#f93f2a;stroke:#f93f2a;stroke-miterlimit:10;}.cls-3,.cls-4{font-size:122px;font-family:AkzidenzGroteskStd-MdIt, Akzidenz-Grotesk Std;font-weight:500;font-style:italic;}.cls-4{letter-spacing:-0.03em;}.cls-5{letter-spacing:0.02em;}.cls-6{letter-spacing:-0.05em;}.cls-7{letter-spacing:-0.09em;}</style></defs><g id="Layer_1" data-name="Layer 1"><g class="cls-1"><path class="cls-2" d="M442.14,814c-5.17,3.71-10.35,7.43-18,8.58-24.51,3.68-51.08-22.62-59.82-49.46-9.14-28,2.44-52.77,5-58,14.7-29.56,48.42-50,84.14-47,45.44,3.78,77.29,44,79,75.53,1,19-8.3,43.32-13.43,56.67-8.93,23.24-16.44,31.16-12.39,39,8.41,16.37,50.11.63,58,15.26,7,12.89-13.84,46.59-43.68,53.69-28,6.65-62.11-10.46-68.7-33.57-10.83-38,59.76-68,50.71-117.8-3.72-20.48-19.69-37.74-37.42-44.45-31.1-11.75-67.83,8.88-66.88,18.41,1.19,12,61.34,3.32,71,29.07C475.87,776.45,459.41,801.58,442.14,814Z"/><path class="cls-2" d="M571.77,921.73c8.11,10.52,26,11.07,35.64,3.07,13.63-11.27,9.68-38.49-3.74-44.77-10.94-5.12-28,3.72-33.75,17.18C569.5,898.22,564,911.7,571.77,921.73Z"/></g><g class="cls-1"><path class="cls-2" d="M577.37,536.24c-3.37-2.77-6.75-5.55-8.86-10.42-6.77-15.61,6-37.87,22.25-48.41,17-11,35.44-7.68,39.32-6.89,22.21,4.54,41.71,23.3,46,47.52,5.51,30.81-15.56,59-36.16,65.75-12.39,4-30.2,2.12-40,1.08-17-1.83-23.57-5.41-28.09-1.33-9.38,8.46,8.42,33.35.11,41.17-7.33,6.9-33.35-1-43.33-19.51-9.34-17.37-4-43,10.16-51.49,23.29-13.88,55.62,27.66,87.08,12.86,12.93-6.07,21.57-19.72,22.89-32.66,2.31-22.7-17.86-43.43-24-41.12-7.72,2.9,8.62,41.28-6.76,52.22C608.22,552,588.65,545.52,577.37,536.24Z"/><path class="cls-2" d="M528.77,641.24c-5.55,7.23-2.76,19.18,4.24,24.18,9.89,7.05,27.25-.37,29-10.38,1.46-8.16-7.42-17.95-17.35-19.35C544,635.58,534.06,634.34,528.77,641.24Z"/></g><g class="cls-1"><path class="cls-2" d="M467.33,582.36c2.26-1.51,4.52-3,7.79-3.4,10.5-1.21,21.44,10.37,24.78,21.93,3.49,12.08-1.79,22.45-3,24.62a37.27,37.27,0,0,1-36.53,18.83c-19.3-2.26-32.29-19.86-32.58-33.32-.18-8.09,4.16-18.33,6.53-23.95,4.14-9.77,7.45-13,5.84-16.46-3.35-7.09-21.34-1-24.5-7.33-2.78-5.59,6.57-19.65,19.39-22.25,12-2.43,26.31,5.35,28.78,15.29,4.07,16.34-26.43,28.1-23.29,49.46a26,26,0,0,0,15.31,19.47c13.07,5.46,29-2.81,28.75-6.88-.33-5.11-26.09-2.3-29.83-13.4C452.42,597.87,459.8,587.4,467.33,582.36Z"/><path class="cls-2" d="M413.65,534.6c-3.31-4.6-10.91-5.09-15.14-1.82-6,4.61-4.68,16.26.95,19.13,4.59,2.34,12-1.18,14.63-6.84C414.28,544.65,416.8,539,413.65,534.6Z"/></g><g class="cls-1"><path class="cls-2" d="M324.14,480.28c-3.08,0-6.16,0-9.49-1.71C304,473.11,301,455.3,305.12,442.3c4.31-13.58,15.83-20,18.3-21.33a42.21,42.21,0,0,1,46.28,5.26c16.77,14.29,17.93,39.06,9.73,51.92-4.94,7.74-15.48,14.66-21.25,18.46-10.06,6.6-15.23,7.59-15.87,11.83-1.32,8.8,19.49,14.37,18.47,22.34-.9,7-18.57,14.39-32.29,8.76C315.64,534.27,307.07,517.93,311,507c6.45-18,42.61-9.83,53.1-31.94,4.32-9.08,2.92-20.36-2.15-28-8.89-13.38-29.13-15.64-31.44-11.63-2.9,5,23.14,18.6,19.67,31.42C348,475.06,334.42,480.28,324.14,480.28Z"/><path class="cls-2" d="M344.64,559.11c.22,6.42,7.08,11.67,13.13,11.25,8.53-.58,14.65-12.38,11.15-18.63-2.85-5.09-12.06-6.44-18.09-2.77C350.38,549.24,344.44,553,344.64,559.11Z"/></g><g class="cls-1"><path class="cls-2" d="M527.64,462.84c2.72,3.11,5.45,6.24,6.66,11.12,3.9,15.63-11.48,34.45-28.3,41.77-17.58,7.64-34.3,1.68-37.81.33-20-7.68-35.34-28.24-35.63-51.54-.36-29.63,23.7-52.73,44-55.81,12.2-1.85,28.54,2.7,37.5,5.2,15.59,4.34,21.18,8.7,26,5.59,10.07-6.45-2.69-32.45,6.28-38.47,7.92-5.31,31,6.07,37.45,24.94,6,17.69-2.93,40.84-17.48,46.53C542.43,461.86,518.67,418,487,427c-13,3.67-23.21,15.08-26.45,27-5.68,20.84,9.94,43.34,16.05,42.13,7.66-1.5-1.65-39.9,14.42-47.73C501.26,443.33,518.54,452.43,527.64,462.84Z"/><path class="cls-2" d="M589.34,372.3c6.31-5.9,5.56-17.5-.21-23.26-8.14-8.12-25.51-3.88-28.74,5.19-2.64,7.4,4.14,17.92,13.2,20.78C574.27,375.22,583.33,377.92,589.34,372.3Z"/></g><g class="cls-1"><path class="cls-2" d="M384.67,310.18c-4-.78-8.1-1.57-12-4.66-12.64-9.91-12.06-34.13-3.31-50.18,9.14-16.77,25.95-22.32,29.53-23.41,20.47-6.23,45.09.57,59.58,18.72,18.43,23.09,13.64,56-.44,70.83-8.46,8.93-24.1,15.35-32.67,18.87-14.92,6.13-22,6.12-23.91,11.54-4,11.24,22,23.88,18.62,34.11-3,9-28.11,14.21-44.73,3.31-15.57-10.22-22.69-33.92-14.74-47.3,13.08-22,58.6-2.08,78.05-28.5,8-10.86,9-26.07,4.3-37.41-8.29-19.87-34.35-28-38.42-23.32-5.1,5.88,25.72,30.38,17.88,46.38C417.36,309.38,398.2,312.8,384.67,310.18Z"/><path class="cls-2" d="M391.57,419.17c-1.35,8.51,6.34,17.17,14.41,18.16,11.37,1.41,22.44-12.56,19.43-21.67-2.46-7.43-14.23-11.56-23.11-8.26C401.64,407.65,392.86,411.07,391.57,419.17Z"/></g><g class="cls-1"><path class="cls-2" d="M230.34,423.43c3.89-2.57,7.8-5.15,13.44-5.77,18.08-2,36.78,18.09,42.41,38,5.87,20.82-3.34,38.62-5.38,42.34-11.64,21.24-37,35.23-63.07,32-33.19-4.1-55.36-34.53-55.72-57.69-.21-13.93,7.36-31.51,11.52-41.15,7.22-16.78,13-22.36,10.22-28.27-5.68-12.25-36.71-1.93-42.08-12.89-4.73-9.66,11.52-33.75,33.6-38.08,20.7-4.06,45.23,9.5,49.38,26.63,6.82,28.16-45.8,48.07-40.63,84.87,2.12,15.13,13.33,28.25,26.13,33.69,22.45,9.53,50-4.52,49.57-11.53-.52-8.8-44.88-4.24-51.19-23.4C204.5,450,217.31,432,230.34,423.43Z"/><path class="cls-2" d="M138.46,340.64c-5.64-8-18.72-8.88-26-3.3-10.32,7.86-8.22,27.93,1.43,32.93,7.87,4.07,20.67-1.9,25.24-11.61C139.44,357.94,143.84,348.22,138.46,340.64Z"/></g><g class="cls-1"><path class="cls-2" d="M215.1,175.07c-7.44,0-14.9,0-22.95-4.12-25.78-13.23-33.07-56.33-23.07-87.78,10.44-32.85,38.31-48.44,44.28-51.6,34.12-18.06,80.08-14.46,112,12.73,40.57,34.57,43.38,94.5,23.54,125.63-11.94,18.72-37.44,35.47-51.42,44.65-24.33,16-36.85,18.38-38.39,28.64-3.19,21.28,47.15,34.77,44.68,54-2.18,17-44.93,34.81-78.11,21.2-31.09-12.75-51.84-52.3-42.34-78.73,15.63-43.46,103.1-23.79,128.5-77.29,10.44-22,7.05-49.27-5.22-67.73-21.51-32.38-70.47-37.84-76.07-28.14-7,12.16,56,45,47.59,76C272.73,162.43,240,175.07,215.1,175.07Z"/><path class="cls-2" d="M264.72,365.81c.52,15.53,17.12,28.23,31.75,27.23,20.63-1.42,35.44-30,27-45.08-6.89-12.32-29.17-15.59-43.76-6.7C278.59,341.93,264.21,351,264.72,365.81Z"/></g><g class="cls-1"><path class="cls-2" d="M755.17,257.79c7-3.12,14.12-6.25,23.47-5.72,30,1.7,55,39.47,58.69,73.46,3.9,35.5-16,62-20.28,67.46-24.75,31.43-69.79,47.31-111.42,34.94-52.94-15.72-80.75-71.3-75-109.12,3.45-22.74,20.58-49.31,30-63.87,16.34-25.35,27.2-32.88,24.35-43.24-5.91-21.5-59.25-13.15-65-32.45-5.07-17,28-51.83,65.09-52.86,34.8-1,71.06,27.78,73.15,56.81,3.44,47.72-87.68,65.8-89.28,127.13-.66,25.21,14,49.63,33.37,62,34,21.64,82.63,6.26,83.86-5.27,1.55-14.47-71.92-19.13-77-52C705.88,294,731.61,268.23,755.17,257.79Z"/><path class="cls-2" d="M628.12,98c-7-14.49-28.07-19.56-41.5-12.47-19,10-21,43.26-6.65,54,11.7,8.78,34.18,2.53,44.27-12C625,126.39,634.81,111.76,628.12,98Z"/></g><g class="cls-1"><path class="cls-2" d="M497.68,203.66c-4.09,1.07-8.2,2.16-13.22,1.05-16.1-3.54-26.36-26.2-25.42-45,1-19.59,14.06-32.21,16.89-34.82,16.16-14.87,42-19.55,63.46-9.22,27.34,13.15,37.57,45.71,31.16,65.72-3.85,12-15.46,24.94-21.82,32-11.07,12.32-17.62,15.46-17,21.32,1.33,12.18,31,12.3,32.42,23.27,1.27,9.67-19.68,25.67-39.91,23-18.95-2.52-36.1-21.27-34.7-37.19,2.3-26.18,53.28-28,59.51-61.15,2.55-13.61-3.27-28.14-12.69-36.52-16.53-14.69-44.26-10.6-45.94-4.46-2.1,7.71,37.33,16.65,37.21,34.94C527.57,188.35,511.37,200.05,497.68,203.66Z"/><path class="cls-2" d="M552.63,301.42c2.54,8.47,13.51,13.05,21.41,10.38,11.15-3.77,15.17-21.62,8.32-28.71-5.58-5.78-18.31-4.36-25.05,2.66C556.8,286.27,550.2,293.35,552.63,301.42Z"/></g><g class="cls-1"><path class="cls-2" d="M743.61,677c3.28,4.2,6.57,8.43,7.77,14.8,3.88,20.41-17.3,43.53-39.51,51.72-23.19,8.56-44.29-.34-48.71-2.33-25.25-11.36-43.46-39-42.12-69,1.69-38.19,34.37-66.18,60.73-68.66,15.85-1.49,36.57,5.56,47.92,9.43,19.76,6.73,26.64,12.76,33.12,9.11,13.45-7.57-1.09-42,10.91-49.1,10.58-6.25,39.49,10.1,46.4,34.87,6.48,23.22-6.76,52.38-25.91,58.65-31.48,10.3-58.87-47.88-100.34-38.69-17,3.78-31,17.72-36,32.8-8.85,26.43,9.63,56.54,17.58,55.44,10-1.38.8-51.51,22.07-60.42C711.07,650,732.66,663,743.61,677Z"/><path class="cls-2" d="M829.7,564.93c8.56-7.13,8.44-22.12,1.42-30-9.89-11.06-32.56-6.86-37.39,4.58-3.94,9.33,4,23.38,15.49,27.72C810.07,567.6,821.54,571.74,829.7,564.93Z"/></g><g class="cls-1"><path class="cls-2" d="M912.84,627.34c-6.73,0-13.5,0-20.78-3.74-23.36-12-30-51-20.9-79.51,9.46-29.75,34.7-43.88,40.11-46.74,30.91-16.35,72.54-13.1,101.43,11.53,36.75,31.32,39.3,85.6,21.32,113.8-10.81,17-33.91,32.13-46.57,40.44-22,14.48-33.39,16.65-34.78,26-2.89,19.27,42.71,31.49,40.47,49-2,15.4-40.69,31.53-70.75,19.2-28.16-11.55-47-47.38-38.35-71.32,14.16-39.37,93.39-21.55,116.4-70,9.45-19.92,6.38-44.64-4.73-61.36-19.49-29.33-63.83-34.27-68.9-25.49-6.36,11,50.71,40.76,43.1,68.87C965.05,615.89,935.37,627.34,912.84,627.34Z"/><path class="cls-2" d="M957.79,800.11c.48,14.06,15.51,25.57,28.76,24.66,18.69-1.28,32.11-27.13,24.44-40.83-6.24-11.16-26.42-14.12-39.64-6.07C970.36,778.48,957.33,786.7,957.79,800.11Z"/></g><g class="cls-1"><path class="cls-2" d="M1009.72,169.84c-3.07,0-6.16,0-9.48-1.71-10.66-5.46-13.67-23.27-9.54-36.27,4.32-13.58,15.84-20,18.3-21.33a42.23,42.23,0,0,1,46.29,5.26c16.76,14.29,17.92,39.06,9.72,51.92-4.93,7.74-15.47,14.66-21.25,18.46-10,6.6-15.23,7.59-15.86,11.83-1.32,8.8,19.48,14.37,18.46,22.34-.9,7-18.57,14.39-32.28,8.76-12.85-5.27-21.43-21.61-17.5-32.54,6.46-18,42.61-9.83,53.11-31.94,4.31-9.08,2.91-20.36-2.16-28-8.89-13.38-29.12-15.64-31.44-11.63-2.9,5,23.14,18.6,19.67,31.42C1033.54,164.62,1020,169.84,1009.72,169.84Z"/><path class="cls-2" d="M1030.23,248.67c.22,6.42,7.08,11.67,13.12,11.25,8.53-.58,14.65-12.38,11.16-18.63-2.85-5.09-12.06-6.44-18.09-2.77C1036,238.8,1030,242.55,1030.23,248.67Z"/></g><g class="cls-1"><path class="cls-2" d="M927,186.41c3.08-2.25,6.18-4.52,10.77-5.24,14.71-2.33,30.8,13.34,36.18,29.42,5.63,16.8-1.21,31.72-2.73,34.84-8.68,17.84-28.84,30.28-50.32,28.67-27.32-2.05-46.65-26.06-47.85-45-.73-11.38,4.78-26.06,7.79-34.11,5.25-14,9.72-18.8,7.25-23.53-5.13-9.79-30.1-.13-34.93-8.88-4.25-7.71,8.09-28.06,26-32.47,16.77-4.14,37.37,6,41.44,19.83,6.69,22.77-35.57,41.13-29.89,71,2.33,12.29,12,22.59,22.7,26.53,18.74,6.91,40.71-5.67,40.09-11.39-.77-7.17-36.87-1.69-42.8-17.12C906.94,209.13,916.71,194,927,186.41Z"/><path class="cls-2" d="M848.61,122.31c-4.92-6.28-15.66-6.52-21.43-1.67-8.13,6.84-5.62,23.17,2.47,26.88,6.6,3,16.83-2.37,20.19-10.49C850.09,136.43,853.31,128.3,848.61,122.31Z"/></g><g class="cls-1"><path class="cls-2" d="M1030,400.66c-5,0-10,0-15.34-2.76-17.24-8.84-22.12-37.66-15.43-58.69,7-22,25.61-32.4,29.61-34.51,22.82-12.07,53.55-9.67,74.88,8.51,27.13,23.12,29,63.19,15.74,84-8,12.51-25,23.72-34.38,29.85-16.27,10.69-24.65,12.3-25.68,19.16-2.13,14.23,31.53,23.25,29.88,36.14-1.45,11.37-30,23.28-52.23,14.17-20.79-8.52-34.67-35-28.31-52.64,10.45-29.06,68.94-15.91,85.93-51.68,7-14.7,4.7-33-3.5-45.3-14.38-21.64-47.12-25.29-50.86-18.81-4.7,8.13,37.44,30.09,31.82,50.84C1068.49,392.21,1046.58,400.66,1030,400.66Z"/><path class="cls-2" d="M1063.13,528.2c.35,10.38,11.45,18.87,21.23,18.2,13.8-.94,23.7-20,18.05-30.14-4.61-8.23-19.51-10.42-29.27-4.47C1072.41,512.23,1062.79,518.3,1063.13,528.2Z"/></g><g class="cls-1"><path class="cls-2" d="M131.44,602c-2.43-3.41-4.87-6.83-5.61-11.86-2.38-16.13,15-33.56,32.64-39.26,18.46-6,34.71,1.7,38.11,3.4,19.43,9.73,32.81,32,30.79,55.44-2.57,29.89-29.09,50.76-49.84,51.85-12.47.66-28.48-5.54-37.25-8.94-15.28-5.92-20.47-10.87-25.67-8.22-10.79,5.5-.51,33-10.15,38.13-8.49,4.57-30.63-9.19-35.24-28.83-4.32-18.41,7-40.84,22.21-45.13,25-7.06,44.6,39.43,77.4,33.57,13.48-2.4,24.87-12.88,29.31-24.53,7.8-20.44-5.71-44.64-12-44-7.87.77-2.3,40.36-19.26,46.65C156.07,624.28,139.57,613.4,131.44,602Z"/><path class="cls-2" d="M60.32,687.1c-6.94,5.32-7.33,17.07-2.09,23.44,7.4,9,25.31,6.44,29.46-2.38,3.39-7.18-2.39-18.46-11.24-22.23C75.79,685.65,66.93,682,60.32,687.1Z"/></g><g class="cls-1"><path class="cls-2" d="M84.72,176.24c-3.44.93-6.89,1.85-11.13.95C60,174.27,51.3,155.24,52,139.44c.76-16.49,11.71-27.17,14.08-29.37a48.91,48.91,0,0,1,53.39-8c23.07,11,31.81,38.33,26.49,55.2-3.19,10.14-12.91,21.06-18.24,27-9.27,10.42-14.77,13.08-14.2,18,1.17,10.24,26.13,10.23,27.38,19.46,1.11,8.13-16.46,21.68-33.5,19.51-16-2-30.48-17.76-29.37-31.17,1.83-22.05,44.75-23.81,49.85-51.72,2.1-11.46-2.86-23.67-10.83-30.69-14-12.3-37.3-8.75-38.68-3.56-1.74,6.49,31.49,13.86,31.46,29.26C109.82,163.24,96.23,173.15,84.72,176.24Z"/><path class="cls-2" d="M131.37,258.32c2.17,7.12,11.42,10.94,18.07,8.66,9.37-3.22,12.68-18.26,6.88-24.21-4.72-4.84-15.43-3.59-21.08,2.34C134.82,245.55,129.3,251.54,131.37,258.32Z"/></g><g class="cls-1"><path class="cls-2" d="M889.9,367.3c-2.83-2.48-5.67-5-7.36-9.23-5.4-13.64,6.21-32.48,20.51-41.11,14.94-9,30.75-5.66,34.07-4.87,19,4.52,35.31,21.22,38.38,42.22,3.9,26.7-15,50.44-33,55.67-10.79,3.14-26.08,1-34.46-.16-14.6-2-20.17-5.3-24.18-1.91-8.31,7,6.35,29-1,35.48-6.5,5.75-28.71-1.74-36.8-18-7.58-15.23-2.28-37.21,10.16-44.1,20.45-11.33,47.18,25.35,74.7,13.46,11.31-4.88,19.12-16.4,20.61-27.52,2.62-19.5-14.19-37.92-19.56-36.09-6.73,2.28,6.29,35.81-7.26,44.81C916.05,381.72,899.36,375.6,889.9,367.3Z"/><path class="cls-2" d="M845.14,456.45c-5,6.09-2.91,16.46,3,21,8.32,6.35,23.48.43,25.31-8.15,1.48-7-5.9-15.67-14.43-17.15C858.39,452,849.89,450.65,845.14,456.45Z"/></g><g class="cls-1"><path class="cls-2" d="M284.61,730.93c2.56,3.29,5.12,6.6,6.06,11.59,3,16-13.6,34-31,40.42-18.16,6.67-34.66-.32-38.11-1.88-19.75-8.93-34-30.54-32.88-54,1.38-29.89,27-51.74,47.62-53.65,12.41-1.15,28.61,4.4,37.49,7.44,15.45,5.29,20.83,10,25.91,7.17,10.53-5.9-.8-32.86,8.6-38.4,8.29-4.88,30.89,7.95,36.27,27.35,5,18.17-5.37,41-20.36,45.85-24.65,8-46-37.54-78.47-30.4-13.34,2.93-24.28,13.83-28.24,25.62-7,20.67,7.46,44.26,13.68,43.41,7.81-1.07.7-40.31,17.35-47.26C259.18,709.71,276.05,719.9,284.61,730.93Z"/><path class="cls-2" d="M352.13,643.31c6.7-5.57,6.63-17.3,1.15-23.44-7.72-8.67-25.48-5.42-29.27,3.53-3.09,7.3,3.12,18.31,12.08,21.72C336.76,645.37,345.73,648.63,352.13,643.31Z"/></g><g class="cls-1"><path class="cls-2" d="M24.94,466.4c-3.43,2.29-6.88,4.6-11.87,5.18-16,1.85-32.67-15.81-37.77-33.43-5.32-18.4,2.74-34.21,4.52-37.52,10.2-18.87,32.54-31.4,55.67-28.69,29.42,3.44,49.22,30.26,49.67,50.77.27,12.33-6.34,28-10,36.5-6.31,14.9-11.36,19.88-8.9,25.09,5.1,10.82,32.52,1.51,37.34,11.18,4.24,8.52-10,29.95-29.54,33.91-18.31,3.71-40.11-8.15-43.88-23.3-6.2-24.9,40.29-42.83,35.5-75.39-2-13.38-12-24.94-23.33-29.68-19.93-8.31-44.24,4.28-43.83,10.49C-.93,419.3,38.33,415,44,431.94,47.67,442.76,36.43,458.72,24.94,466.4Z"/><path class="cls-2" d="M106.77,539.19c5,7,16.63,7.76,23.08,2.78,9.09-7,7.12-24.79-1.46-29.16-7-3.56-18.29,1.8-22.29,10.42C105.81,523.88,102,532.51,106.77,539.19Z"/></g><g class="cls-1"><path class="cls-2" d="M101.8,928.47c-5.69,5.19-11.4,10.4-20.43,12.87-29,7.89-64.65-20-79-51-15-32.44-4.53-63.83-2.17-70.42,13.5-37.65,51.18-67,94.58-68.48,55.19-1.89,99.2,42,105.76,79.68,4,22.66-3.87,53.29-8.15,70.08-7.45,29.22-15.36,39.81-9.37,48.73C195.48,968.4,243.41,943.56,255,960c10.21,14.53-10.06,58-45,70.78-32.7,12-76.21-3.8-87.4-30.67C104.24,956,184.92,909.93,167,851.26c-7.37-24.11-29-42.62-51.31-48.18-39.08-9.75-80.35,20.28-77.86,31.61,3.13,14.21,74.28-4.69,89.52,24.93C137.08,878.53,120.83,911.09,101.8,928.47Z"/><path class="cls-2" d="M273,1039.74c11.25,11.52,32.82,9.64,43.32-1.34,14.8-15.5,6.19-47.68-10.84-53.34-13.88-4.61-33.22,8.45-38.17,25.45C266.94,1011.78,262.28,1028.77,273,1039.74Z"/></g><g class="cls-1"><path class="cls-2" d="M451.3,984.61c6-2.67,12.09-5.35,20.1-4.9,25.67,1.46,47.07,33.81,50.27,62.91C525,1073,508,1095.7,504.29,1100.41c-21.19,26.91-59.76,40.51-95.42,29.92-45.34-13.47-69.16-61.07-64.25-93.46,2.95-19.47,17.62-42.23,25.66-54.7,14-21.71,23.29-28.16,20.85-37-5.06-18.41-50.74-11.26-55.67-27.79-4.35-14.57,23.93-44.39,55.74-45.27,29.81-.83,60.86,23.8,62.65,48.66,2.95,40.87-75.09,56.35-76.47,108.88-.56,21.59,12,42.51,28.59,53.08,29.09,18.53,70.77,5.36,71.82-4.52,1.33-12.39-61.59-16.38-65.93-44.57C409.09,1015.58,431.12,993.55,451.3,984.61Z"/><path class="cls-2" d="M342.49,847.72c-6-12.41-24-16.75-35.55-10.68-16.23,8.56-18,37-5.69,46.26,10,7.52,29.27,2.17,37.92-10.29C339.81,872.08,348.22,859.55,342.49,847.72Z"/></g><g class="cls-1"><path class="cls-2" d="M774.56,778c-2.88-3-5.76-6.1-7.18-11-4.54-15.67,10.29-35.31,27-43.36,17.49-8.42,34.65-3,38.25-1.8,20.58,7,36.86,27.22,38.05,50.79,1.51,30-22,54.28-42.37,58.17-12.28,2.35-29-1.63-38.15-3.8-16-3.8-21.77-8-26.57-4.66-10,6.91,4,32.74-4.88,39.18-7.8,5.68-31.61-5-38.86-23.8-6.79-17.67,1.4-41.45,15.89-47.77,23.84-10.39,49.58,33.05,81.31,22.78,13-4.22,22.9-16.15,25.73-28.31,4.95-21.32-11.73-43.48-17.87-42-7.69,1.82,3.2,40.32-12.75,48.87C802,796.69,784.17,788.15,774.56,778Z"/><path class="cls-2" d="M715.6,872c-6.16,6.22-5,17.92,1.11,23.53,8.56,7.9,26,2.94,28.89-6.36,2.39-7.59-4.88-18-14.16-20.52C730.74,868.44,721.47,866.06,715.6,872Z"/></g><g class="cls-1"><path class="cls-2" d="M640.47,785.73c2.25-1.5,4.51-3,7.79-3.4,10.49-1.21,21.43,10.38,24.78,21.93,3.49,12.08-1.8,22.45-3,24.62a37.24,37.24,0,0,1-36.52,18.83c-19.31-2.26-32.3-19.86-32.59-33.31-.18-8.1,4.16-18.34,6.54-23.95,4.13-9.78,7.44-13,5.83-16.46-3.34-7.1-21.33-1-24.49-7.34-2.79-5.59,6.56-19.65,19.38-22.25,12-2.43,26.31,5.35,28.78,15.29,4.07,16.34-26.43,28.1-23.29,49.46A26,26,0,0,0,629,828.62c13.08,5.46,29-2.8,28.76-6.88-.34-5.11-26.09-2.29-29.83-13.4C625.56,801.24,632.93,790.77,640.47,785.73Z"/><path class="cls-2" d="M586.78,738c-3.3-4.6-10.91-5.09-15.14-1.82-6,4.61-4.67,16.26,1,19.13,4.59,2.34,12-1.18,14.63-6.84C587.41,748,589.93,742.36,586.78,738Z"/></g><g class="cls-1"><path class="cls-2" d="M617.7,1066c-5.41,0-10.84,0-16.69-3-18.75-9.62-24-41-16.78-63.84,7.6-23.9,27.86-35.24,32.21-37.54,24.82-13.13,58.24-10.51,81.44,9.26,29.51,25.15,31.56,68.74,17.12,91.38-8.68,13.62-27.22,25.8-37.39,32.48-17.7,11.62-26.81,13.37-27.93,20.83-2.32,15.48,34.3,25.29,32.5,39.31-1.58,12.37-32.68,25.32-56.81,15.42-22.61-9.28-37.71-38-30.8-57.27,11.37-31.61,75-17.3,93.47-56.21,7.59-16,5.12-35.84-3.8-49.26-15.65-23.55-51.25-27.52-55.33-20.47-5.1,8.85,40.73,32.73,34.62,55.3C659.62,1056.85,635.79,1066,617.7,1066Z"/><path class="cls-2" d="M653.79,1204.77c.39,11.29,12.45,20.53,23.1,19.8,15-1,25.78-21.78,19.62-32.78-5-9-21.22-11.34-31.83-4.87C663.88,1187.4,653.43,1194,653.79,1204.77Z"/></g><g class="cls-1"><path class="cls-2" d="M1091.34,983.31c5.62-3.73,11.26-7.49,19.41-8.41,26.12-3,53.28,25.94,61.53,54.72,8.61,30.07-4.61,55.85-7.53,61.24-16.72,30.78-53.24,51.15-91,46.63-48-5.74-80.25-49.6-80.89-83.09-.39-20.14,10.46-45.6,16.41-59.56,10.35-24.3,18.61-32.4,14.62-40.93-8.28-17.68-53.09-2.58-60.91-18.39-6.9-13.94,16.46-48.87,48.36-55.25,29.9-6,65.45,13.47,71.54,38.21,10,40.69-65.94,69.77-58.26,122.94,3.16,21.86,19.43,40.77,38,48.56,32.52,13.65,72.25-6.82,71.61-17-.81-12.72-64.91-5.87-74.15-33.53C1054.15,1021.81,1072.55,995.8,1091.34,983.31Z"/><path class="cls-2" d="M958,864.13c-8.2-11.46-27.12-12.72-37.67-4.62C905.49,871,908.64,900,922.63,907.12c11.4,5.85,29.87-2.87,36.43-16.92C959.55,889.15,965.86,875.07,958,864.13Z"/></g><g class="cls-1"><path class="cls-2" d="M865.22,1095.28c2.08,4.84,4.17,9.71,3.73,16.1-1.4,20.5-27.44,37.31-50.72,39.6-24.33,2.39-42.29-11.4-46-14.41-21.31-17.18-31.83-48.12-23-76.52,11.17-36.11,49.42-54.7,75.26-50.49,15.54,2.54,33.59,14.46,43.48,21,17.22,11.38,22.29,18.87,29.4,17,14.76-3.88,9.46-40.45,22.71-44.24,11.69-3.34,35.26,19.53,35.67,45,.4,23.83-19.56,48.41-39.44,49.62-32.69,2-44.35-60.52-86.32-62.09-17.24-.65-34.07,9.2-42.67,22.36-15.07,23.07-4.92,56.5,3,57.43,9.89,1.17,13.65-49.07,36.22-52.28C840.86,1061.27,858.26,1079.08,865.22,1095.28Z"/><path class="cls-2" d="M975.6,1009.57c10-4.69,13.6-19.05,8.85-28.3-6.69-13-29.43-14.71-36.92-5-6.09,7.94-2,23.37,7.89,30.39C956.16,1007.22,966.09,1014,975.6,1009.57Z"/></g><g class="cls-1"><path class="cls-2" d="M860.72,923.22c2-2.27,4.09-4.56,7.56-5.89,11.12-4.27,26.32,5.33,33.21,17,7.19,12.22,4.32,25,3.65,27.73a42,42,0,0,1-34.63,30.79c-21.73,2.94-40.85-12.65-44.93-27.27-2.46-8.79-.59-21.2.43-28,1.79-11.83,4.49-16.33,1.77-19.62-5.64-6.81-23.59,4.9-28.81-1.15-4.61-5.33,1.67-23.31,14.94-29.73,12.44-6,30.25-1.52,35.73,8.64,9,16.71-21,38.1-11.6,60.56,3.87,9.23,13.16,15.68,22.18,17,15.81,2.3,30.92-11.19,29.49-15.57-1.8-5.49-29.15,4.8-36.34-6.29C848.77,944.34,853.89,930.84,860.72,923.22Z"/><path class="cls-2" d="M788.69,886.07c-4.9-4.1-13.34-2.51-17.05,2.25-5.23,6.71-.55,19.08,6.4,20.63,5.66,1.27,12.78-4.65,14.06-11.56C792.2,896.87,793.36,890,788.69,886.07Z"/></g><g class="cls-1"><path class="cls-2" d="M47.24,1130.07c-5,0-10,0-15.34-2.75-17.25-8.85-22.12-37.67-15.44-58.7,7-22,25.62-32.39,29.62-34.51,22.81-12.07,53.54-9.66,74.88,8.52,27.12,23.12,29,63.19,15.73,84-8,12.51-25,23.71-34.37,29.85-16.27,10.69-24.65,12.29-25.68,19.15-2.13,14.23,31.53,23.25,29.88,36.15-1.46,11.37-30,23.27-52.23,14.17-20.79-8.53-34.67-35-28.31-52.65,10.45-29.06,68.94-15.9,85.92-51.67,7-14.71,4.71-33-3.49-45.3C94,1054.69,61.29,1051,57.55,1057.53c-4.7,8.13,37.44,30.09,31.82,50.84C85.78,1121.62,63.87,1130.07,47.24,1130.07Z"/><path class="cls-2" d="M80.42,1257.61c.35,10.39,11.45,18.88,21.23,18.21,13.8-.94,23.7-20,18-30.14-4.61-8.23-19.5-10.43-29.26-4.48C89.7,1241.65,80.08,1247.72,80.42,1257.61Z"/></g><g class="cls-1"><path class="cls-2" d="M724.32-.77c-5,0-10,0-15.35-2.76-17.24-8.84-22.11-37.66-15.43-58.69,7-22,25.62-32.4,29.61-34.51C746-108.8,776.7-106.4,798-88.22c27.13,23.12,29,63.19,15.74,84-8,12.52-25,23.72-34.38,29.86-16.26,10.68-24.64,12.29-25.67,19.15C751.59,59,785.25,68.05,783.6,80.94c-1.46,11.37-30.05,23.28-52.23,14.18-20.79-8.53-34.67-35-28.31-52.65C713.5,13.41,772,26.56,789-9.21c7-14.7,4.71-32.95-3.49-45.29-14.39-21.65-47.12-25.3-50.87-18.82-4.69,8.14,37.45,30.09,31.83,50.84C762.86-9.22,741-.77,724.32-.77Z"/><path class="cls-2" d="M757.5,126.77c.35,10.38,11.45,18.88,21.23,18.21,13.8-.95,23.7-20,18-30.14-4.61-8.24-19.5-10.43-29.26-4.48C766.78,110.8,757.16,116.87,757.5,126.77Z"/></g><g class="cls-1"><path class="cls-2" d="M470.75,35.66c4.25,1.51,8.53,3,12.3,7,12.08,12.82,7.49,39-4.64,55-12.66,16.69-31.79,20-35.86,20.55-23.21,3.4-48.8-8-61.55-30.07-16.2-28-5.62-62.95,12.08-76.74C403.72,3.1,421.73-1.3,431.6-3.72c17.19-4.2,24.85-3,27.82-8.59,6.16-11.55-19.93-29.51-14.6-40,4.71-9.3,32.82-10.8,49.05,3.74C509.09-35,512.93-8.11,502.11,5.09c-17.79,21.72-63.89-7.34-89.32,18.13C402.34,33.69,398.73,50,402,63.08c5.74,22.92,32.67,36,37.85,31.59,6.5-5.54-22.92-37.16-11.79-53.23C435.16,31.18,456.5,30.6,470.75,35.66Z"/></g><g class="cls-1"><path class="cls-2" d="M1637.67,810.36c-4.9,3.53-9.83,7.07-17.1,8.16-23.29,3.49-48.53-21.5-56.84-47-8.68-26.64,2.32-50.14,4.76-55.06,14-28.1,46-47.51,80-44.69,43.17,3.59,73.43,41.81,75.09,71.77,1,18-7.89,41.16-12.77,53.85-8.48,22.08-15.61,29.61-11.76,37.11,8,15.56,47.61.6,55.12,14.5,6.62,12.25-13.16,44.27-41.51,51-26.57,6.32-59-9.95-65.28-31.9-10.29-36.1,56.78-64.58,48.19-111.94C1692,736.72,1676.81,720.32,1660,714c-29.55-11.17-64.46,8.43-63.55,17.49,1.13,11.35,58.29,3.16,67.45,27.62C1669.73,774.69,1654.09,798.57,1637.67,810.36Z"/><path class="cls-2" d="M1760.85,912.74c7.71,10,24.69,10.52,33.87,2.92,13-10.72,9.2-36.58-3.55-42.55-10.4-4.86-26.65,3.54-32.07,16.33C1758.69,890.4,1753.5,903.21,1760.85,912.74Z"/></g><g class="cls-1"><path class="cls-2" d="M1766.18,546.44c-3.2-2.63-6.42-5.27-8.43-9.9-6.42-14.83,5.7-36,21.15-46,16.14-10.45,33.67-7.3,37.37-6.55,21.1,4.31,39.62,22.14,43.74,45.16,5.23,29.27-14.79,56.08-34.36,62.47-11.78,3.84-28.7,2-38,1-16.15-1.74-22.4-5.14-26.7-1.26-8.91,8,8,31.68.11,39.12-7,6.55-31.69-.92-41.17-18.54-8.88-16.51-3.81-40.9,9.65-48.93,22.13-13.19,52.85,26.28,82.75,12.23,12.28-5.78,20.49-18.74,21.74-31,2.2-21.57-17-41.27-22.81-39.07-7.33,2.75,8.19,39.22-6.42,49.62C1795.49,561.42,1776.9,555.26,1766.18,546.44Z"/><path class="cls-2" d="M1720,646.21c-5.27,6.88-2.62,18.23,4,23,9.39,6.7,25.88-.35,27.59-9.86,1.4-7.75-7-17.06-16.48-18.39C1734.43,640.84,1725,639.65,1720,646.21Z"/></g><g class="cls-1"><path class="cls-2" d="M1661.62,590.27c2.14-1.44,4.29-2.87,7.4-3.23,10-1.16,20.37,9.85,23.54,20.83,3.32,11.48-1.7,21.33-2.81,23.39a35.41,35.41,0,0,1-34.71,17.9c-18.34-2.15-30.69-18.87-31-31.66-.17-7.69,4-17.42,6.21-22.76,3.93-9.28,7.07-12.39,5.54-15.64-3.18-6.74-20.27-.93-23.27-7-2.65-5.32,6.24-18.68,18.41-21.15,11.41-2.31,25,5.09,27.36,14.53,3.86,15.53-25.12,26.7-22.14,47a24.74,24.74,0,0,0,14.55,18.5c12.43,5.19,27.58-2.67,27.32-6.54-.32-4.85-24.79-2.18-28.34-12.73C1647.45,605,1654.45,595.05,1661.62,590.27Z"/><path class="cls-2" d="M1610.61,544.88c-3.15-4.37-10.37-4.83-14.39-1.73-5.67,4.38-4.44,15.45.9,18.18,4.36,2.22,11.41-1.12,13.9-6.5C1611.21,554.43,1613.6,549.05,1610.61,544.88Z"/></g><g class="cls-1"><path class="cls-2" d="M1525.55,493.27c-2.92,0-5.85,0-9-1.62-10.13-5.2-13-22.12-9.06-34.47,4.1-12.91,15-19,17.39-20.27a40.08,40.08,0,0,1,44,5c15.94,13.58,17,37.11,9.25,49.34-4.69,7.35-14.71,13.93-20.19,17.53-9.56,6.28-14.48,7.22-15.08,11.25-1.26,8.36,18.51,13.65,17.54,21.23-.85,6.67-17.64,13.67-30.67,8.32-12.21-5-20.36-20.54-16.63-30.92,6.14-17.07,40.49-9.34,50.47-30.35,4.1-8.63,2.76-19.35-2-26.6-8.45-12.72-27.68-14.86-29.88-11-2.75,4.77,22,17.67,18.69,29.86C1548.18,488.3,1535.32,493.27,1525.55,493.27Z"/><path class="cls-2" d="M1545,568.17c.2,6.1,6.72,11.09,12.46,10.69,8.11-.55,13.92-11.76,10.6-17.7-2.71-4.84-11.45-6.12-17.19-2.63C1550.48,558.79,1544.84,562.36,1545,568.17Z"/></g><g class="cls-1"><path class="cls-2" d="M1718.92,476.7c2.58,2.95,5.18,5.93,6.33,10.56,3.7,14.85-10.91,32.73-26.89,39.69-16.71,7.26-32.59,1.6-35.93.32-19-7.3-33.58-26.84-33.86-49-.34-28.16,22.52-50.1,41.8-53,11.6-1.76,27.13,2.57,35.64,4.94,14.81,4.12,20.12,8.27,24.74,5.32,9.57-6.13-2.56-30.85,6-36.57,7.52-5,29.47,5.78,35.58,23.71,5.74,16.8-2.78,38.8-16.6,44.21-22.72,8.89-45.3-32.75-75.41-24.26-12.38,3.49-22.06,14.33-25.14,25.62-5.4,19.81,9.45,41.19,15.25,40,7.28-1.43-1.56-37.91,13.71-45.36C1693.86,458.16,1710.27,466.8,1718.92,476.7Z"/><path class="cls-2" d="M1777.55,390.66c6-5.61,5.28-16.63-.2-22.1-7.74-7.72-24.24-3.69-27.31,4.93-2.51,7,3.93,17,12.55,19.75C1763.23,393.44,1771.84,396,1777.55,390.66Z"/></g><g class="cls-1"><path class="cls-2" d="M1583.07,331.64c-3.84-.75-7.7-1.5-11.45-4.43-12-9.42-11.46-32.43-3.14-47.69,8.69-15.94,24.66-21.21,28.06-22.24,19.45-5.92,42.84.54,56.61,17.79,17.52,21.94,13,53.19-.41,67.3-8,8.48-22.9,14.59-31,17.94-14.18,5.82-20.9,5.81-22.72,11-3.78,10.68,20.89,22.69,17.69,32.41-2.83,8.57-26.72,13.5-42.51,3.14-14.79-9.71-21.56-32.23-14-44.94,12.43-20.9,55.68-2,74.17-27.09,7.59-10.32,8.57-24.76,4.08-35.53-7.88-18.89-32.64-26.62-36.51-22.16-4.84,5.58,24.44,28.86,17,44.06C1614.13,330.87,1595.93,334.13,1583.07,331.64Z"/><path class="cls-2" d="M1589.63,435.2c-1.29,8.08,6,16.31,13.68,17.26,10.81,1.33,21.33-11.94,18.47-20.6-2.33-7.06-13.52-11-22-7.85C1599.19,424.25,1590.85,427.5,1589.63,435.2Z"/></g><g class="cls-1"><path class="cls-2" d="M1436.42,439.24c3.7-2.43,7.42-4.89,12.77-5.47,17.18-1.88,35,17.18,40.3,36.12,5.58,19.79-3.17,36.7-5.11,40.23-11.06,20.19-35.12,33.48-59.93,30.41-31.54-3.9-52.61-32.81-53-54.82-.2-13.23,7-29.94,10.94-39.1,6.87-15.94,12.32-21.25,9.72-26.86-5.4-11.64-34.88-1.84-40-12.25-4.5-9.17,10.94-32.07,31.93-36.19,19.66-3.85,43,9,46.91,25.31,6.49,26.76-43.52,45.68-38.61,80.65,2,14.37,12.67,26.84,24.84,32,21.33,9.06,47.49-4.29,47.1-10.95-.5-8.36-42.64-4-48.65-22.24C1411.87,464.45,1424,447.41,1436.42,439.24Z"/><path class="cls-2" d="M1349.12,360.57c-5.36-7.55-17.79-8.43-24.75-3.13-9.81,7.47-7.81,26.54,1.36,31.29,7.48,3.87,19.64-1.81,24-11C1350,377,1354.22,367.78,1349.12,360.57Z"/></g><g class="cls-1"><path class="cls-2" d="M1421.94,203.25c-7.07,0-14.16,0-21.81-3.92-24.5-12.56-31.42-53.52-21.92-83.4,9.92-31.22,36.4-46,42.07-49,32.43-17.15,76.1-13.73,106.41,12.1,38.55,32.85,41.22,89.79,22.37,119.38-11.34,17.78-35.58,33.7-48.86,42.42-23.12,15.19-35,17.47-36.48,27.22-3,20.22,44.8,33,42.46,51.36-2.07,16.15-42.7,33.08-74.23,20.14-29.54-12.12-49.26-49.7-40.23-74.81,14.85-41.3,98-22.6,122.11-73.44,9.92-20.89,6.69-46.82-5-64.36-20.44-30.77-67-35.95-72.28-26.74-6.67,11.56,53.21,42.76,45.22,72.25C1476.7,191.24,1445.57,203.25,1421.94,203.25Z"/><path class="cls-2" d="M1469.09,384.49c.5,14.76,16.27,26.83,30.17,25.88,19.61-1.35,33.68-28.47,25.64-42.83-6.55-11.71-27.72-14.82-41.59-6.37C1482.27,361.8,1468.61,370.42,1469.09,384.49Z"/></g><g class="cls-1"><path class="cls-2" d="M1935.13,281.85c6.69-3,13.41-5.94,22.29-5.43,28.48,1.62,52.23,37.5,55.78,69.8,3.7,33.73-15.16,58.88-19.28,64.11-23.52,29.85-66.31,44.94-105.87,33.19-50.3-14.94-76.73-67.75-71.28-103.69,3.27-21.6,19.55-46.85,28.46-60.69,15.53-24.08,25.85-31.24,23.14-41.09-5.62-20.42-56.3-12.49-61.77-30.83-4.82-16.17,26.55-49.25,61.85-50.23,33.07-.92,67.52,26.4,69.51,54,3.26,45.35-83.32,62.53-84.84,120.81-.63,24,13.31,47.16,31.71,58.88,32.28,20.56,78.52,5.95,79.69-5,1.47-13.74-68.34-18.17-73.16-49.45C1888.29,316.22,1912.74,291.77,1935.13,281.85Z"/><path class="cls-2" d="M1814.4,130c-6.67-13.77-26.67-18.58-39.44-11.85-18,9.51-20,41.1-6.31,51.33,11.12,8.34,32.48,2.41,42.06-11.42C1811.43,157,1820.75,143.09,1814.4,130Z"/></g><g class="cls-1"><path class="cls-2" d="M1690.45,230.41c-3.88,1-7.79,2.06-12.56,1-15.3-3.37-25.05-24.9-24.15-42.72.94-18.62,13.36-30.61,16-33.08,15.35-14.14,39.88-18.59,60.3-8.76,26,12.49,35.69,43.43,29.6,62.44C1756,220.73,1745,233,1739,239.73c-10.52,11.7-16.74,14.69-16.13,20.26,1.26,11.57,29.44,11.69,30.8,22.11,1.21,9.19-18.69,24.39-37.92,21.84-18-2.39-34.31-20.21-33-35.34,2.19-24.87,50.64-26.63,56.55-58.1,2.43-12.93-3.1-26.74-12.06-34.7-15.7-14-42-10.08-43.64-4.24-2,7.33,35.47,15.82,35.35,33.2C1718.85,215.87,1703.46,227,1690.45,230.41Z"/><path class="cls-2" d="M1742.66,323.31c2.42,8.05,12.84,12.4,20.35,9.86,10.6-3.58,14.41-20.54,7.91-27.28-5.3-5.49-17.4-4.14-23.81,2.53C1746.63,308.91,1740.36,315.64,1742.66,323.31Z"/></g><g class="cls-1"><path class="cls-2" d="M1924.14,680.23c3.11,4,6.24,8,7.39,14.06,3.68,19.4-16.45,41.36-37.55,49.15-22,8.14-42.09-.32-46.29-2.21-24-10.8-41.29-37-40-65.55,1.61-36.29,32.66-62.88,57.71-65.24,15.06-1.42,34.74,5.28,45.53,8.95,18.78,6.4,25.31,12.13,31.47,8.66,12.78-7.19-1-39.9,10.37-46.65,10-5.94,37.53,9.59,44.09,33.13,6.16,22.06-6.42,49.78-24.62,55.73-29.91,9.79-55.94-45.49-95.34-36.76-16.2,3.59-29.45,16.84-34.24,31.16-8.41,25.12,9.15,53.74,16.7,52.69,9.48-1.32.77-49,21-57.42C1893.22,654.52,1913.73,666.85,1924.14,680.23Z"/></g><g class="cls-1"><path class="cls-2" d="M1342.44,608.94c-2.31-3.23-4.63-6.48-5.33-11.26-2.26-15.33,14.23-31.89,31-37.31,17.54-5.66,33,1.62,36.22,3.23,18.45,9.24,31.16,30.36,29.24,52.68-2.44,28.4-27.64,48.24-47.35,49.27-11.85.63-27.06-5.26-35.4-8.49-14.51-5.63-19.45-10.33-24.39-7.81-10.25,5.22-.48,31.31-9.64,36.23-8.07,4.34-29.1-8.73-33.49-27.4-4.11-17.49,6.65-38.81,21.11-42.88,23.76-6.71,42.38,37.47,73.55,31.9,12.81-2.29,23.63-12.24,27.85-23.32,7.4-19.41-5.43-42.41-11.39-41.84-7.47.73-2.19,38.35-18.3,44.33C1365.85,630.1,1350.17,619.76,1342.44,608.94Z"/><path class="cls-2" d="M1274.86,689.79c-6.59,5.05-7,16.22-2,22.27,7,8.54,24,6.12,28-2.26,3.22-6.83-2.28-17.54-10.69-21.12C1289.57,688.41,1281.15,685,1274.86,689.79Z"/></g><g class="cls-1"><path class="cls-2" d="M1298.05,204.37c-3.27.87-6.55,1.75-10.57.89-12.9-2.77-21.19-20.86-20.51-35.86.72-15.68,11.13-25.82,13.38-27.92a46.5,46.5,0,0,1,50.73-7.62c21.92,10.42,30.22,36.43,25.17,52.46-3,9.63-12.27,20-17.33,25.69-8.81,9.9-14,12.43-13.5,17.13,1.11,9.73,24.84,9.72,26,18.48,1,7.73-15.65,20.61-31.84,18.54-15.17-1.94-29-16.87-27.91-29.61,1.74-21,42.52-22.63,47.37-49.14,2-10.9-2.72-22.5-10.29-29.17-13.27-11.69-35.44-8.31-36.76-3.39-1.65,6.18,29.93,13.18,29.9,27.81C1321.9,192,1309,201.43,1298.05,204.37Z"/><path class="cls-2" d="M1342.37,282.36c2.07,6.76,10.86,10.39,17.18,8.22,8.9-3.05,12-17.35,6.54-23-4.48-4.6-14.67-3.41-20,2.22C1345.66,270.22,1340.41,275.91,1342.37,282.36Z"/></g><g class="cls-1"><path class="cls-2" d="M1488,731.43c2.43,3.14,4.87,6.28,5.76,11,2.85,15.19-12.93,32.35-29.45,38.41-17.25,6.34-32.93-.31-36.22-1.79-18.76-8.48-32.26-29-31.23-51.35,1.31-28.4,25.64-49.17,45.25-51,11.78-1.09,27.18,4.18,35.61,7.07,14.69,5,19.8,9.53,24.62,6.82,10-5.61-.76-31.23,8.18-36.49,7.87-4.64,29.35,7.55,34.46,26,4.79,17.27-5.1,38.94-19.34,43.58-23.42,7.62-43.72-35.67-74.57-28.89-12.67,2.78-23.06,13.14-26.83,24.34-6.62,19.64,7.09,42.06,13,41.25,7.42-1,.66-38.3,16.49-44.91C1463.82,711.28,1479.86,721,1488,731.43Z"/><path class="cls-2" d="M1552.14,648.19c6.38-5.3,6.31-16.45,1.1-22.29-7.34-8.23-24.21-5.14-27.81,3.37-2.94,6.93,3,17.39,11.48,20.63C1537.55,650.14,1546.07,653.24,1552.14,648.19Z"/></g><g class="cls-1"><path class="cls-2" d="M1241.25,480.07c-3.26,2.19-6.54,4.38-11.28,4.93-15.2,1.76-31-15-35.89-31.77-5.06-17.48,2.6-32.5,4.3-35.64,9.68-17.94,30.91-29.85,52.89-27.27,28,3.27,46.78,28.75,47.2,48.24.25,11.72-6,26.56-9.47,34.69-6,14.15-10.79,18.88-8.45,23.84,4.84,10.28,30.9,1.43,35.48,10.62,4,8.1-9.51,28.46-28.07,32.22-17.4,3.53-38.11-7.75-41.7-22.14-5.89-23.66,38.29-40.69,33.74-71.63-1.87-12.72-11.37-23.7-22.17-28.21-18.94-7.9-42,4.07-41.65,10,.49,7.4,37.79,3.33,43.2,19.42C1262.84,457.61,1252.17,472.78,1241.25,480.07Z"/><path class="cls-2" d="M1319,549.25c4.79,6.66,15.8,7.37,21.93,2.63,8.64-6.67,6.77-23.55-1.38-27.7-6.64-3.39-17.38,1.71-21.18,9.9C1318.09,534.69,1314.44,542.9,1319,549.25Z"/></g><g class="cls-1"><path class="cls-2" d="M1314.28,919.14c-5.4,4.93-10.83,9.89-19.42,12.23-27.52,7.5-61.43-19-75-48.5-14.22-30.82-4.31-60.65-2.06-66.91,12.83-35.78,48.63-63.66,89.86-65.07,52.45-1.79,94.27,39.91,100.5,75.72,3.75,21.53-3.67,50.63-7.74,66.58-7.08,27.77-14.6,37.83-8.9,46.31,11.8,17.59,57.35-6,68.36,9.64,9.7,13.81-9.56,55.13-42.72,67.26-31.07,11.36-72.41-3.62-83-29.14-17.49-42,59.17-85.73,42.13-141.48-7-22.91-27.59-40.5-48.76-45.78-37.13-9.26-76.35,19.26-74,30,3,13.5,70.57-4.45,85.06,23.69C1347.8,871.7,1332.36,902.63,1314.28,919.14Z"/><path class="cls-2" d="M1477,1024.88c10.69,10.94,31.19,9.16,41.16-1.28,14.06-14.72,5.88-45.31-10.3-50.68-13.19-4.38-31.56,8-36.27,24.18C1471.2,998.31,1466.77,1014.45,1477,1024.88Z"/></g><g class="cls-1"><path class="cls-2" d="M1646.38,972.49c5.73-2.54,11.49-5.09,19.1-4.65,24.39,1.38,44.73,32.12,47.77,59.78,3.17,28.89-13,50.43-16.51,54.9-20.14,25.57-56.8,38.5-90.67,28.44-43.09-12.8-65.72-58-61.06-88.81,2.81-18.51,16.75-40.13,24.38-52,13.3-20.63,22.14-26.76,19.82-35.19-4.81-17.5-48.22-10.7-52.91-26.41-4.12-13.85,22.75-42.18,53-43,28.32-.78,57.82,22.61,59.53,46.24,2.79,38.83-71.36,53.55-72.66,103.46-.54,20.51,11.4,40.39,27.16,50.43,27.64,17.61,67.24,5.1,68.25-4.29,1.25-11.77-58.54-15.56-62.66-42.35C1606.27,1001.92,1627.21,981,1646.38,972.49Z"/><path class="cls-2" d="M1543,842.41c-5.72-11.79-22.85-15.91-33.78-10.14-15.43,8.13-17.09,35.19-5.41,44,9.52,7.14,27.82,2.06,36-9.79C1540.44,865.56,1548.43,853.65,1543,842.41Z"/></g><g class="cls-1"><path class="cls-2" d="M1953.55,776.13c-2.73-2.89-5.47-5.8-6.82-10.44-4.32-14.89,9.78-33.55,25.69-41.21,16.62-8,32.92-2.87,36.34-1.71,19.56,6.66,35,25.86,36.16,48.26,1.44,28.49-20.86,51.58-40.26,55.28-11.67,2.23-27.55-1.55-36.25-3.62-15.15-3.6-20.69-7.59-25.25-4.43-9.45,6.58,3.78,31.12-4.63,37.24-7.42,5.39-30-4.71-36.93-22.62-6.45-16.78,1.33-39.38,15.1-45.39,22.66-9.87,47.11,31.4,77.26,21.65,12.39-4,21.77-15.35,24.45-26.9,4.7-20.26-11.15-41.32-17-39.94-7.31,1.73,3,38.31-12.12,46.44C1979.62,793.93,1962.68,785.81,1953.55,776.13Z"/><path class="cls-2" d="M1897.52,865.47c-5.85,5.9-4.7,17,1.06,22.35,8.13,7.52,24.67,2.8,27.45-6,2.27-7.21-4.64-17.08-13.46-19.5C1911.91,862.1,1903.1,859.84,1897.52,865.47Z"/></g><g class="cls-1"><path class="cls-2" d="M1826.13,783.51c2.14-1.43,4.29-2.87,7.4-3.23,10-1.15,20.37,9.86,23.55,20.84,3.31,11.48-1.71,21.33-2.82,23.39a35.37,35.37,0,0,1-34.7,17.89c-18.35-2.14-30.69-18.86-31-31.65-.17-7.69,4-17.42,6.21-22.76,3.93-9.28,7.08-12.39,5.55-15.64-3.18-6.74-20.28-.94-23.28-7-2.64-5.31,6.24-18.67,18.42-21.14,11.41-2.31,25,5.08,27.35,14.53,3.87,15.52-25.12,26.7-22.13,47a24.75,24.75,0,0,0,14.54,18.5c12.43,5.18,27.58-2.67,27.33-6.54-.32-4.86-24.79-2.18-28.35-12.74C1812,798.25,1819,788.3,1826.13,783.51Z"/><path class="cls-2" d="M1775.12,738.13c-3.14-4.37-10.37-4.83-14.39-1.73-5.67,4.38-4.44,15.45.91,18.18,4.35,2.22,11.4-1.13,13.89-6.5C1775.72,747.68,1778.11,742.3,1775.12,738.13Z"/></g><g class="cls-1"><path class="cls-2" d="M1804.5,1049.87c-5.14,0-10.3,0-15.86-2.85-17.82-9.14-22.86-38.93-16-60.67,7.22-22.7,26.48-33.48,30.61-35.66,23.58-12.48,55.34-10,77.39,8.8,28,23.89,30,65.31,16.27,86.82-8.25,12.94-25.88,24.52-35.53,30.86-16.82,11-25.48,12.71-26.54,19.8-2.21,14.71,32.58,24,30.88,37.35-1.51,11.75-31,24.06-54,14.65-21.48-8.81-35.83-36.14-29.26-54.41,10.8-30,71.26-16.44,88.81-53.41,7.22-15.2,4.87-34.06-3.61-46.82-14.86-22.37-48.7-26.15-52.57-19.44-4.85,8.4,38.7,31.1,32.89,52.54C1844.33,1041.13,1821.69,1049.87,1804.5,1049.87Z"/><path class="cls-2" d="M1838.79,1181.69c.37,10.73,11.84,19.51,22,18.82,14.26-1,24.49-20.7,18.65-31.15-4.77-8.52-20.17-10.78-30.25-4.63C1848.38,1165.19,1838.45,1171.46,1838.79,1181.69Z"/></g><g class="cls-1"><path class="cls-2" d="M1262.43,1110.71c-4.72,0-9.46,0-14.57-2.62-16.39-8.4-21-35.79-14.67-55.77,6.64-20.87,24.34-30.78,28.14-32.79,21.68-11.47,50.88-9.18,71.15,8.09,25.78,22,27.56,60,15,79.82-7.59,11.9-23.79,22.54-32.67,28.37-15.46,10.16-23.42,11.68-24.4,18.2-2,13.53,30,22.1,28.39,34.35-1.38,10.8-28.54,22.12-49.63,13.47-19.75-8.11-32.94-33.24-26.9-50,9.93-27.61,65.51-15.11,81.65-49.11,6.63-14,4.47-31.31-3.32-43-13.67-20.57-44.77-24-48.33-17.87-4.46,7.73,35.58,28.59,30.24,48.31C1299.06,1102.68,1278.24,1110.71,1262.43,1110.71Z"/><path class="cls-2" d="M1294,1231.9c.34,9.87,10.88,17.94,20.18,17.31,13.11-.9,22.52-19,17.14-28.64-4.38-7.83-18.53-9.91-27.81-4.26C1302.78,1216.73,1293.64,1222.5,1294,1231.9Z"/></g><g class="cls-1"><path class="cls-2" d="M1905.81,36.16c-4.73,0-9.47,0-14.58-2.62-16.38-8.4-21-35.78-14.66-55.77C1883.2-43.1,1900.91-53,1904.7-55c21.69-11.47,50.88-9.18,71.15,8.09,25.78,22,27.57,60,15,79.83-7.58,11.89-23.79,22.53-32.67,28.37-15.46,10.15-23.42,11.68-24.39,18.19-2,13.53,30,22.1,28.39,34.35-1.39,10.8-28.55,22.12-49.63,13.47-19.76-8.11-33-33.24-26.91-50,9.93-27.61,65.51-15.11,81.65-49.1,6.64-14,4.48-31.31-3.32-43-13.66-20.58-44.77-24-48.33-17.88-4.46,7.73,35.58,28.59,30.24,48.31C1942.43,28.13,1921.61,36.16,1905.81,36.16Z"/></g><g class="cls-1"><path class="cls-2" d="M1664.86,70.78c4,1.44,8.11,2.88,11.69,6.68,11.48,12.18,7.12,37.05-4.4,52.23-12,15.86-30.22,19-34.08,19.53-22.06,3.23-46.38-7.61-58.49-28.57-15.39-26.66-5.34-59.81,11.48-72.92,10.11-7.88,27.22-12.07,36.6-14.37,16.34-4,23.62-2.88,26.44-8.17,5.85-11-18.94-28-13.87-38,4.47-8.83,31.18-10.26,46.6,3.56,14.46,13,18.11,38.49,7.83,51-16.9,20.64-60.71-7-84.87,17.23-9.93,9.95-13.36,25.46-10.25,37.88,5.45,21.77,31,34.21,36,30,6.17-5.26-21.78-35.31-11.21-50.58C1631.05,66.52,1651.32,66,1664.86,70.78Z"/></g><g class="cls-1"><path class="cls-2" d="M1176.66,732.68c4.72,1.65,9.45,3.31,13.63,7.72,13.4,14.11,8.44,43.05-4.89,60.77-13.93,18.5-35.06,22.18-39.55,22.86-25.64,3.85-54-8.65-68.15-33-18-30.94-6.48-69.55,13-84.87,11.73-9.21,31.62-14.16,42.52-16.87,19-4.72,27.45-3.45,30.71-9.62,6.75-12.78-22.16-32.52-16.3-44.19,5.16-10.3,36.22-12.08,54.22,3.93,16.87,15,21.23,44.68,9.33,59.32-19.57,24.08-70.64-7.85-98.64,20.41-11.5,11.62-15.42,29.67-11.75,44.1,6.43,25.31,36.25,39.65,42,34.75,7.15-6.15-25.49-41-13.26-58.77C1137.32,727.87,1160.9,727.15,1176.66,732.68Z"/><path class="cls-2" d="M1187.63,600.75c3.12-10-4.58-21.71-14.07-24.32-13.4-3.7-29.13,11.1-27.13,22.56,1.63,9.35,15,16.38,26.25,14C1173.52,612.8,1184.66,610.24,1187.63,600.75Z"/></g><g class="cls-1"><path class="cls-2" d="M1224.19,251.67c3.71-2.44,7.42-4.89,12.78-5.47,17.18-1.88,35,17.18,40.3,36.12,5.58,19.78-3.17,36.69-5.11,40.23C1261.09,342.73,1237,356,1212.23,353c-31.55-3.9-52.61-32.81-53-54.82-.2-13.24,7-29.95,10.94-39.1,6.87-15.94,12.32-21.25,9.72-26.86-5.4-11.65-34.89-1.84-40-12.25-4.49-9.18,11-32.08,31.93-36.19,19.67-3.85,43,9,46.92,25.3,6.49,26.77-43.52,45.68-38.61,80.65,2,14.37,12.67,26.85,24.83,32,21.34,9.06,47.5-4.29,47.11-11-.5-8.36-42.65-4-48.65-22.23C1199.65,276.88,1211.81,259.83,1224.19,251.67Z"/><path class="cls-2" d="M1136.89,173c-5.36-7.56-17.79-8.44-24.74-3.14-9.81,7.48-7.82,26.55,1.36,31.3,7.47,3.87,19.64-1.81,24-11C1137.82,189.44,1142,180.21,1136.89,173Z"/></g><g class="cls-1"><path class="cls-2" d="M1070.81,10.43c-5.89,3.9-11.8,7.81-20.34,8.76-27.36,3-55.75-27.27-64.32-57.44-9-31.51,4.94-58.48,8-64.11,17.57-32.21,55.87-53.46,95.41-48.66,50.28,6.12,83.94,52.12,84.54,87.2.37,21.09-11,47.74-17.31,62.34-10.9,25.43-19.56,33.9-15.4,42.84,8.64,18.53,55.6,2.81,63.75,19.39,7.2,14.61-17.33,51.14-50.76,57.76-31.33,6.21-68.52-14.24-74.85-40.17-10.41-42.63,69.21-72.93,61.28-128.64-3.26-22.89-20.27-42.74-39.67-50.93-34-14.37-75.68,7-75,17.61.82,13.32,68,6.28,77.59,35.28C1109.85-29.82,1090.52-2.62,1070.81,10.43Z"/><path class="cls-2" d="M1210.18,135.52c8.56,12,28.37,13.39,39.44,4.92,15.61-11.94,12.37-42.33-2.26-49.87-11.93-6.14-31.3,3-38.2,17.65C1208.65,109.32,1202,124.06,1210.18,135.52Z"/></g><g class="cls-1"><path class="cls-2" d="M606.16,1595.3c-5.16-3.71-10.35-7.44-18-8.58-24.51-3.68-51.07,22.62-59.82,49.46-9.14,28,2.44,52.77,5,57.94,14.7,29.57,48.42,50,84.15,47,45.43-3.78,77.28-44,79-75.53,1.05-19-8.31-43.32-13.44-56.67-8.93-23.24-16.43-31.16-12.38-39,8.4-16.38,50.1-.63,58-15.26,7-12.9-13.84-46.6-43.68-53.7-28-6.65-62.11,10.47-68.7,33.57-10.82,38,59.76,68,50.71,117.8-3.72,20.48-19.69,37.75-37.42,44.45-31.1,11.76-67.83-8.87-66.88-18.4,1.19-11.95,61.35-3.33,71-29.08C639.89,1632.84,623.44,1607.71,606.16,1595.3Z"/><path class="cls-2" d="M735.79,1487.56c8.12-10.53,26-11.07,35.65-3.08,13.62,11.28,9.67,38.5-3.75,44.78-10.93,5.12-28.05-3.72-33.75-17.19C733.52,1511.07,728.06,1497.59,735.79,1487.56Z"/></g><g class="cls-1"><path class="cls-2" d="M741.4,1873c-3.38,2.77-6.76,5.56-8.87,10.43-6.76,15.61,6,37.87,22.26,48.4,17,11,35.43,7.69,39.32,6.9,22.2-4.54,41.7-23.3,46-47.53,5.51-30.8-15.56-59-36.16-65.74-12.39-4-30.2-2.13-40-1.08-17,1.82-23.57,5.4-28.09,1.33-9.38-8.47,8.42-33.35.11-41.17-7.32-6.9-33.35,1-43.32,19.5-9.35,17.38-4,43.05,10.15,51.49,23.29,13.88,55.62-27.65,87.08-12.86,12.93,6.08,21.57,19.72,22.89,32.67,2.31,22.7-17.85,43.42-24,41.11-7.72-2.89,8.62-41.28-6.76-52.22C772.24,1857.29,752.67,1863.77,741.4,1873Z"/><path class="cls-2" d="M692.79,1768.05c-5.55-7.24-2.76-19.19,4.25-24.19,9.88-7,27.24.38,29,10.38,1.46,8.16-7.42,18-17.35,19.36C708,1773.7,698.08,1775,692.79,1768.05Z"/></g><g class="cls-1"><path class="cls-2" d="M631.36,1826.93c2.25,1.5,4.51,3,7.79,3.39,10.49,1.22,21.43-10.37,24.77-21.93,3.49-12.07-1.79-22.44-3-24.61A37.23,37.23,0,0,0,624.44,1765c-19.31,2.26-32.3,19.86-32.59,33.31-.18,8.09,4.16,18.34,6.54,24,4.13,9.78,7.44,13,5.83,16.46-3.34,7.1-21.34,1-24.49,7.33-2.79,5.6,6.56,19.66,19.38,22.26,12,2.43,26.31-5.35,28.78-15.29,4.07-16.34-26.43-28.1-23.29-49.46A26.05,26.05,0,0,1,619.91,1784c13.08-5.45,29,2.81,28.75,6.89-.33,5.11-26.08,2.29-29.82,13.4C616.45,1811.42,623.82,1821.89,631.36,1826.93Z"/><path class="cls-2" d="M577.67,1874.69c-3.3,4.6-10.91,5.08-15.14,1.82-6-4.61-4.67-16.26,1-19.13,4.59-2.34,12,1.18,14.63,6.83C578.3,1864.64,580.82,1870.3,577.67,1874.69Z"/></g><g class="cls-1"><path class="cls-2" d="M488.16,1929c-3.07,0-6.16,0-9.48,1.7C468,1936.18,465,1954,469.14,1967c4.32,13.58,15.83,20,18.3,21.33a42.21,42.21,0,0,0,46.28-5.26c16.77-14.3,17.93-39.06,9.73-51.93-4.93-7.73-15.47-14.66-21.25-18.45-10.05-6.61-15.23-7.6-15.87-11.84-1.32-8.79,19.49-14.37,18.47-22.34-.9-7-18.57-14.38-32.28-8.76-12.85,5.27-21.43,21.62-17.5,32.54,6.46,18,42.61,9.83,53.11,31.94,4.31,9.09,2.91,20.37-2.16,28-8.89,13.38-29.13,15.63-31.44,11.63-2.9-5,23.14-18.6,19.67-31.43C512,1934.23,498.44,1929,488.16,1929Z"/><path class="cls-2" d="M508.67,1850.18c.21-6.42,7.07-11.67,13.12-11.26,8.53.59,14.65,12.39,11.15,18.63-2.85,5.09-12.05,6.45-18.09,2.77C514.4,1860.05,508.46,1856.3,508.67,1850.18Z"/></g><g class="cls-1"><path class="cls-2" d="M691.66,1946.44c2.72-3.11,5.45-6.23,6.67-11.11,3.89-15.63-11.49-34.45-28.31-41.77-17.58-7.64-34.3-1.68-37.81-.34-20,7.69-35.34,28.24-35.63,51.54-.36,29.64,23.7,52.73,44,55.81,12.2,1.85,28.55-2.7,37.5-5.19,15.59-4.34,21.18-8.71,26-5.6,10.07,6.45-2.69,32.46,6.28,38.48,7.92,5.31,31-6.08,37.45-25,6-17.68-2.93-40.84-17.48-46.52-23.91-9.36-47.67,34.46-79.36,25.53-13-3.68-23.2-15.08-26.45-27-5.68-20.85,9.94-43.34,16.05-42.14,7.66,1.51-1.64,39.9,14.42,47.74C665.29,1966,682.56,1956.86,691.66,1946.44Z"/><path class="cls-2" d="M753.37,2037c6.3,5.9,5.55,17.49-.22,23.25-8.14,8.13-25.51,3.89-28.74-5.19-2.64-7.39,4.14-17.92,13.21-20.77C738.29,2034.06,747.35,2031.36,753.37,2037Z"/></g><g class="cls-1"><path class="cls-2" d="M548.7,2099.1c-4.05.79-8.11,1.57-12.05,4.67-12.64,9.91-12.06,34.12-3.31,50.18,9.15,16.77,25.95,22.32,29.53,23.41,20.47,6.22,45.09-.58,59.58-18.73,18.43-23.08,13.64-56-.43-70.82-8.47-8.93-24.11-15.36-32.68-18.88-14.92-6.13-22-6.11-23.9-11.53-4-11.25,22-23.89,18.61-34.12-3-9-28.11-14.2-44.73-3.3-15.57,10.22-22.69,33.92-14.74,47.3,13.08,22,58.6,2.07,78.06,28.5,8,10.86,9,26.07,4.29,37.4-8.29,19.88-34.35,28-38.42,23.32-5.1-5.87,25.72-30.38,17.88-46.37C581.38,2099.91,562.23,2096.48,548.7,2099.1Z"/><path class="cls-2" d="M555.59,1990.11c-1.35-8.5,6.34-17.16,14.41-18.16,11.37-1.4,22.44,12.56,19.43,21.68-2.45,7.43-14.23,11.56-23.11,8.26C565.66,2001.64,556.88,1998.22,555.59,1990.11Z"/></g><g class="cls-1"><path class="cls-2" d="M394.36,1985.86c3.89,2.57,7.81,5.14,13.44,5.76,18.08,2,36.79-18.08,42.41-38,5.88-20.82-3.34-38.61-5.38-42.33-11.64-21.24-37-35.23-63.06-32-33.2,4.11-55.37,34.53-55.73,57.7-.21,13.93,7.37,31.51,11.52,41.15,7.23,16.77,13,22.36,10.22,28.27-5.68,12.25-36.71,1.93-42.08,12.88-4.73,9.66,11.52,33.76,33.61,38.09,20.69,4.05,45.22-9.5,49.37-26.63,6.83-28.17-45.8-48.07-40.63-84.87,2.12-15.13,13.33-28.26,26.13-33.69,22.45-9.53,50,4.52,49.57,11.53-.52,8.8-44.87,4.24-51.19,23.4C368.53,1959.33,381.33,1977.27,394.36,1985.86Z"/><path class="cls-2" d="M302.48,2068.65c-5.64,8-18.72,8.88-26,3.3-10.32-7.87-8.22-27.94,1.43-32.93,7.87-4.08,20.67,1.9,25.25,11.6C303.46,2051.35,307.86,2061.07,302.48,2068.65Z"/></g><g class="cls-1"><path class="cls-2" d="M379.12,2234.21c-7.44,0-14.9,0-22.95,4.13-25.78,13.22-33.07,56.32-23.07,87.77,10.44,32.86,38.31,48.45,44.28,51.61,34.13,18.05,80.08,14.45,112-12.73,40.57-34.58,43.38-94.5,23.54-125.63-11.94-18.72-37.44-35.47-51.41-44.65-24.33-16-36.86-18.38-38.4-28.64-3.19-21.29,47.15-34.77,44.68-54.06-2.17-17-44.93-34.81-78.11-21.19-31.09,12.75-51.84,52.3-42.34,78.73,15.63,43.46,103.11,23.79,128.5,77.28,10.44,22,7.05,49.28-5.22,67.74-21.51,32.38-70.47,37.83-76.07,28.14-7-12.17,56-45,47.59-76C436.76,2246.85,404,2234.21,379.12,2234.21Z"/><path class="cls-2" d="M428.74,2043.48c.53-15.53,17.12-28.23,31.75-27.23,20.64,1.41,35.45,30,27,45.07-6.9,12.32-29.18,15.6-43.77,6.7C442.62,2067.36,428.24,2058.28,428.74,2043.48Z"/></g><g class="cls-1"><path class="cls-2" d="M919.19,2151.49c7,3.12,14.12,6.26,23.47,5.73,30-1.71,55-39.47,58.7-73.46,3.89-35.5-16-62-20.29-67.47-24.75-31.42-69.79-47.3-111.41-34.94-52.95,15.73-80.76,71.31-75,109.13,3.44,22.74,20.57,49.31,30,63.87,16.34,25.34,27.2,32.88,24.35,43.24-5.91,21.5-59.25,13.15-65,32.45-5.07,17,28,51.83,65.09,52.86,34.81,1,71.06-27.78,73.15-56.81,3.44-47.72-87.68-65.8-89.28-127.14-.66-25.2,14-49.63,33.38-62,34-21.63,82.62-6.26,83.86,5.28,1.54,14.47-71.93,19.12-77,52C869.9,2115.33,895.64,2141.06,919.19,2151.49Z"/></g><g class="cls-1"><path class="cls-2" d="M661.7,2205.63c-4.09-1.08-8.19-2.16-13.22-1.06-16.1,3.54-26.36,26.2-25.42,45,1,19.59,14.06,32.21,16.89,34.81,16.16,14.88,42,19.56,63.47,9.22,27.33-13.14,37.56-45.71,31.15-65.71-3.85-12-15.46-24.95-21.82-32-11.07-12.32-17.62-15.46-17-21.33,1.33-12.17,31-12.3,32.41-23.27,1.27-9.67-19.67-25.66-39.9-23-19,2.51-36.11,21.27-34.71,37.19,2.3,26.18,53.29,28,59.51,61.15,2.56,13.61-3.27,28.13-12.69,36.51-16.53,14.7-44.26,10.61-45.93,4.46-2.11-7.71,37.33-16.64,37.2-34.94C691.59,2220.94,675.39,2209.23,661.7,2205.63Z"/><path class="cls-2" d="M716.65,2107.87c2.54-8.47,13.51-13.06,21.42-10.39,11.15,3.77,15.16,21.63,8.31,28.72-5.58,5.78-18.31,4.35-25-2.66C720.82,2123,714.23,2115.94,716.65,2107.87Z"/></g><g class="cls-1"><path class="cls-2" d="M907.63,1732.25c3.28-4.21,6.57-8.43,7.78-14.8,3.87-20.42-17.31-43.53-39.51-51.73-23.2-8.56-44.3.34-48.72,2.33-25.25,11.37-43.45,39-42.12,69,1.7,38.19,34.37,66.17,60.73,68.66,15.85,1.49,36.57-5.56,47.92-9.43,19.76-6.73,26.64-12.76,33.12-9.11,13.45,7.57-1.09,42,10.91,49.09,10.58,6.26,39.49-10.09,46.41-34.87,6.47-23.21-6.77-52.38-25.91-58.64-31.48-10.3-58.88,47.87-100.35,38.68-17-3.77-31-17.72-36-32.79-8.85-26.44,9.63-56.55,17.58-55.44,10,1.38.8,51.5,22.07,60.42C875.09,1759.3,896.68,1746.33,907.63,1732.25Z"/><path class="cls-2" d="M993.72,1844.35c8.56,7.14,8.44,22.13,1.43,30-9.89,11-32.57,6.86-37.4-4.59-3.93-9.33,4-23.38,15.49-27.72C974.1,1841.69,985.57,1837.55,993.72,1844.35Z"/></g><g class="cls-1"><path class="cls-2" d="M1076.86,1782c-6.73,0-13.49,0-20.78,3.74-23.35,12-30,51-20.9,79.5,9.46,29.76,34.7,43.89,40.11,46.75,30.91,16.35,72.54,13.09,101.43-11.53,36.75-31.32,39.3-85.6,21.32-113.8-10.81-17-33.91-32.13-46.57-40.45-22-14.47-33.38-16.65-34.78-25.94-2.88-19.28,42.71-31.49,40.48-49-2-15.4-40.7-31.53-70.76-19.2-28.16,11.55-47,47.37-38.35,71.32,14.16,39.36,93.39,21.54,116.4,70,9.46,19.91,6.38,44.64-4.73,61.36-19.49,29.32-63.83,34.27-68.9,25.48-6.36-11,50.72-40.76,43.1-68.87C1129.07,1793.4,1099.39,1782,1076.86,1782Z"/><path class="cls-2" d="M1121.81,1609.18c.48-14.07,15.51-25.57,28.76-24.67,18.69,1.29,32.11,27.14,24.44,40.83-6.24,11.16-26.42,14.13-39.64,6.07C1134.38,1630.81,1121.36,1622.59,1121.81,1609.18Z"/></g><g class="cls-1"><path class="cls-2" d="M1194.25,2160.62c.22-6.42,7.08-11.67,13.13-11.26,8.52.59,14.64,12.38,11.15,18.63-2.85,5.09-12.06,6.45-18.09,2.77C1200,2170.49,1194,2166.74,1194.25,2160.62Z"/></g><g class="cls-1"><path class="cls-2" d="M1091.05,2222.87c3.08,2.26,6.18,4.52,10.77,5.25,14.71,2.33,30.8-13.34,36.18-29.43,5.63-16.79-1.2-31.71-2.72-34.83-8.69-17.84-28.85-30.28-50.33-28.67-27.32,2-46.65,26.06-47.85,45-.73,11.39,4.78,26.07,7.79,34.12,5.26,14,9.73,18.8,7.25,23.52-5.13,9.8-30.1.13-34.92,8.88-4.25,7.72,8.09,28.07,26,32.48,16.77,4.13,37.37-6,41.44-19.83,6.69-22.77-35.57-41.13-29.89-71,2.33-12.29,12-22.58,22.7-26.52,18.74-6.91,40.71,5.66,40.09,11.38-.77,7.18-36.87,1.7-42.79,17.12C1071,2200.16,1080.73,2215.33,1091.05,2222.87Z"/></g><g class="cls-1"><path class="cls-2" d="M1194,2008.63c-5,0-10,0-15.34,2.76-17.24,8.84-22.12,37.66-15.43,58.69,7,22,25.62,32.4,29.61,34.51,22.82,12.07,53.55,9.67,74.88-8.51,27.13-23.12,29-63.19,15.74-84-8-12.52-25-23.72-34.38-29.86-16.27-10.68-24.65-12.29-25.68-19.15-2.13-14.23,31.53-23.25,29.88-36.14-1.45-11.37-30-23.28-52.23-14.18-20.79,8.53-34.66,35-28.31,52.65,10.45,29.06,68.94,15.91,85.93,51.68,7,14.7,4.71,33-3.5,45.29-14.38,21.65-47.12,25.3-50.86,18.82-4.69-8.14,37.44-30.09,31.82-50.84C1232.51,2017.08,1210.6,2008.63,1194,2008.63Z"/><path class="cls-2" d="M1227.15,1881.09c.35-10.38,11.45-18.88,21.23-18.21,13.8.95,23.71,20,18,30.14-4.61,8.24-19.51,10.43-29.27,4.48C1236.43,1897.06,1226.82,1891,1227.15,1881.09Z"/></g><g class="cls-1"><path class="cls-2" d="M295.46,1807.27c-2.43,3.4-4.87,6.82-5.61,11.86-2.38,16.13,15,33.56,32.65,39.26,18.46,6,34.71-1.7,38.11-3.41,19.42-9.72,32.8-31.94,30.78-55.44-2.57-29.88-29.09-50.76-49.84-51.85-12.47-.65-28.48,5.55-37.25,9-15.27,5.91-20.47,10.86-25.67,8.21-10.79-5.49-.51-32.95-10.14-38.13-8.5-4.56-30.63,9.19-35.25,28.84-4.32,18.41,7,40.84,22.21,45.13,25,7,44.6-39.44,77.41-33.58,13.48,2.41,24.86,12.89,29.31,24.54,7.79,20.44-5.72,44.64-12,44-7.86-.76-2.3-40.35-19.26-46.65C320.09,1785,303.59,1795.88,295.46,1807.27Z"/><path class="cls-2" d="M224.34,1722.19c-6.94-5.32-7.33-17.07-2.09-23.44,7.4-9,25.31-6.44,29.47,2.38,3.38,7.18-2.4,18.45-11.25,22.23C239.81,1723.64,231,1727.26,224.34,1722.19Z"/></g><g class="cls-1"><path class="cls-2" d="M257.69,2158.33c3.51-.63,7-1.26,10.47-3.88,11-8.4,10.87-29.34,3.5-43.33-7.68-14.62-22.14-19.63-25.22-20.62-17.61-5.64-39-.08-51.74,15.43-16.22,19.72-12.51,48.21-.53,61.22,7.2,7.83,20.64,13.58,28,16.73,12.82,5.49,18.93,5.57,20.52,10.28,3.29,9.77-19.31,20.36-16.53,29.25,2.46,7.83,24.12,12.64,38.62,3.43,13.59-8.63,20.05-29,13.35-40.69-11-19.18-50.63-2.55-67.1-25.64-6.78-9.49-7.47-22.65-3.24-32.38,7.42-17.08,30.05-23.77,33.51-19.67,4.33,5.14-22.62,25.93-16.05,39.86C229.45,2157.21,246,2160.42,257.69,2158.33Z"/></g><g class="cls-1"><path class="cls-2" d="M1053.92,2042c-2.83,2.48-5.67,5-7.36,9.23-5.4,13.63,6.21,32.47,20.51,41.11,14.94,9,30.75,5.65,34.08,4.86,19-4.51,35.3-21.22,38.37-42.21,3.9-26.7-15-50.45-33-55.67-10.79-3.15-26.09-1-34.47.16-14.6,2-20.17,5.3-24.17,1.91-8.32-7,6.34-29-1-35.49-6.51-5.74-28.72,1.75-36.81,18-7.58,15.23-2.28,37.21,10.16,44.1,20.45,11.32,47.18-25.35,74.7-13.47,11.31,4.89,19.12,16.41,20.61,27.53,2.62,19.5-14.19,37.91-19.56,36.09-6.73-2.29,6.3-35.81-7.26-44.82C1080.08,2027.57,1063.39,2033.69,1053.92,2042Z"/><path class="cls-2" d="M1009.16,1952.83c-5-6.08-2.91-16.46,3-21,8.32-6.34,23.49-.42,25.31,8.15,1.49,7-5.9,15.68-14.42,17.16C1022.41,1957.29,1013.91,1958.64,1009.16,1952.83Z"/></g><g class="cls-1"><path class="cls-2" d="M448.63,1678.36c2.56-3.3,5.13-6.61,6.06-11.59,3-16-13.6-34-31-40.43-18.17-6.67-34.67.33-38.12,1.89-19.75,8.92-34,30.54-32.87,54,1.37,29.88,27,51.74,47.61,53.65,12.41,1.15,28.61-4.4,37.49-7.44,15.45-5.3,20.83-10,25.91-7.18,10.53,5.91-.8,32.87,8.6,38.41,8.29,4.88,30.89-8,36.27-27.35,5-18.17-5.37-41-20.36-45.86-24.64-8-46,37.54-78.47,30.41-13.34-2.94-24.27-13.83-28.24-25.62-7-20.67,7.46-44.26,13.68-43.41,7.81,1.07.7,40.31,17.35,47.26C423.2,1699.57,440.08,1689.39,448.63,1678.36Z"/><path class="cls-2" d="M516.15,1766c6.7,5.58,6.63,17.31,1.15,23.45-7.72,8.66-25.47,5.41-29.27-3.54-3.09-7.29,3.12-18.3,12.09-21.71C500.79,1763.91,509.76,1760.66,516.15,1766Z"/></g><g class="cls-1"><path class="cls-2" d="M189,1942.89c-3.43-2.3-6.88-4.6-11.87-5.18-16-1.85-32.67,15.81-37.77,33.42-5.32,18.41,2.74,34.22,4.53,37.52,10.19,18.88,32.53,31.41,55.66,28.7,29.43-3.44,49.23-30.26,49.67-50.77.27-12.34-6.34-27.95-10-36.51-6.31-14.89-11.35-19.87-8.9-25.09,5.1-10.81,32.53-1.5,37.34-11.17,4.24-8.53-10-30-29.54-33.92-18.3-3.7-40.1,8.16-43.88,23.31-6.2,24.9,40.29,42.82,35.51,75.38-2,13.38-12,24.94-23.34,29.68-19.93,8.32-44.23-4.28-43.83-10.49.52-7.78,39.77-3.5,45.47-20.43C211.69,1966.53,200.46,1950.57,189,1942.89Z"/><path class="cls-2" d="M270.79,1870.09c5-7,16.63-7.75,23.08-2.77,9.1,7,7.12,24.78-1.45,29.16-7,3.56-18.3-1.81-22.29-10.43C269.83,1885.41,266,1876.78,270.79,1870.09Z"/></g><g class="cls-1"><path class="cls-2" d="M265.82,1480.82c-5.68-5.19-11.4-10.41-20.43-12.87-29-7.89-64.65,20-79,51-15,32.43-4.53,63.83-2.17,70.42,13.5,37.65,51.18,67,94.58,68.48,55.19,1.88,99.2-42,105.76-79.69,4-22.66-3.86-53.29-8.15-70.07-7.45-29.22-15.36-39.81-9.37-48.74,12.43-18.51,60.37,6.33,71.95-10.14,10.21-14.53-10.06-58-45-70.79-32.7-12-76.2,3.81-87.39,30.67-18.41,44.17,62.27,90.22,44.33,148.9-7.37,24.11-29,42.62-51.31,48.18-39.07,9.74-80.34-20.28-77.85-31.61,3.12-14.21,74.27,4.68,89.52-24.93C301.1,1530.75,284.85,1498.19,265.82,1480.82Z"/><path class="cls-2" d="M437,1369.54c11.25-11.51,32.82-9.64,43.32,1.35,14.8,15.49,6.19,47.68-10.84,53.33-13.88,4.61-33.22-8.44-38.17-25.44C431,1397.51,426.3,1380.52,437,1369.54Z"/></g><g class="cls-1"><path class="cls-2" d="M615.32,1424.67c6,2.68,12.09,5.36,20.1,4.9,25.67-1.46,47.08-33.8,50.27-62.91,3.34-30.4-13.66-53.07-17.37-57.78-21.2-26.91-59.77-40.51-95.42-29.92-45.35,13.46-69.16,61.06-64.26,93.45,3,19.48,17.62,42.24,25.66,54.71,14,21.71,23.3,28.16,20.86,37-5.07,18.41-50.75,11.26-55.68,27.79-4.35,14.58,23.93,44.39,55.75,45.28,29.8.82,60.85-23.8,62.64-48.66,3-40.87-75.09-56.36-76.46-108.88-.57-21.59,12-42.51,28.58-53.08,29.09-18.53,70.77-5.36,71.82,4.52,1.33,12.39-61.59,16.38-65.93,44.57C573.11,1393.7,595.15,1415.73,615.32,1424.67Z"/><path class="cls-2" d="M506.51,1561.57c-6,12.41-24,16.75-35.55,10.68-16.23-8.57-18-37-5.69-46.27,10-7.51,29.28-2.16,37.92,10.3C503.83,1537.21,512.24,1549.74,506.51,1561.57Z"/></g><g class="cls-1"><path class="cls-2" d="M938.58,1631.32c-2.87,3-5.76,6.11-7.18,11-4.54,15.67,10.3,35.31,27,43.37,17.49,8.41,34.65,3,38.25,1.8,20.58-7,36.86-27.22,38-50.79,1.51-30-22-54.28-42.37-58.18-12.28-2.34-29,1.63-38.15,3.81-16,3.79-21.77,8-26.57,4.66-9.95-6.92,4-32.75-4.87-39.18-7.81-5.68-31.62,5-38.87,23.8-6.78,17.66,1.4,41.44,15.9,47.76,23.84,10.39,49.57-33,81.3-22.77,13,4.21,22.91,16.15,25.73,28.31,4.95,21.32-11.73,43.48-17.87,42-7.69-1.82,3.21-40.32-12.75-48.86C966,1612.6,948.19,1621.13,938.58,1631.32Z"/><path class="cls-2" d="M879.62,1537.31c-6.15-6.22-5-17.93,1.12-23.53,8.55-7.91,26-3,28.88,6.36,2.39,7.58-4.88,18-14.16,20.52C894.76,1540.85,885.49,1543.23,879.62,1537.31Z"/></g><g class="cls-1"><path class="cls-2" d="M804.49,1623.55c2.25,1.51,4.52,3,7.79,3.4,10.49,1.22,21.44-10.37,24.78-21.93,3.49-12.07-1.8-22.44-3-24.61a37.22,37.22,0,0,0-36.52-18.83c-19.3,2.26-32.3,19.85-32.59,33.31-.17,8.09,4.16,18.34,6.54,23.95,4.14,9.77,7.45,13,5.83,16.46-3.34,7.1-21.33,1-24.49,7.33-2.79,5.6,6.56,19.66,19.38,22.25,12,2.44,26.31-5.35,28.79-15.28,4.06-16.34-26.44-28.1-23.3-49.46A26.05,26.05,0,0,1,793,1580.66c13.08-5.45,29,2.81,28.76,6.88-.34,5.11-26.09,2.3-29.83,13.41C789.58,1608,797,1618.51,804.49,1623.55Z"/><path class="cls-2" d="M750.81,1671.31c-3.31,4.6-10.91,5.09-15.15,1.82-6-4.6-4.67-16.26,1-19.13,4.58-2.33,12,1.19,14.62,6.84C751.44,1661.26,754,1666.93,750.81,1671.31Z"/></g><g class="cls-1"><path class="cls-2" d="M781.72,1343.24c-5.4,0-10.83,0-16.68,3-18.76,9.62-24.06,41-16.79,63.85,7.6,23.89,27.86,35.23,32.21,37.53,24.82,13.13,58.24,10.52,81.45-9.26,29.51-25.15,31.55-68.73,17.12-91.37-8.68-13.62-27.23-25.8-37.4-32.48-17.69-11.62-26.81-13.37-27.92-20.83-2.32-15.48,34.29-25.29,32.49-39.32C844.62,1242,813.53,1229,789.39,1239c-22.61,9.27-37.71,38-30.79,57.26,11.36,31.61,75,17.3,93.46,56.21,7.59,16,5.12,35.84-3.8,49.27-15.64,23.55-51.25,27.52-55.32,20.47-5.11-8.85,40.72-32.73,34.61-55.3C823.64,1352.44,799.81,1343.25,781.72,1343.24Z"/><path class="cls-2" d="M817.81,1204.52c.39-11.3,12.46-20.54,23.1-19.81,15,1,25.78,21.79,19.62,32.79-5,9-21.21,11.34-31.83,4.87C827.91,1221.88,817.45,1215.28,817.81,1204.52Z"/></g><g class="cls-1"><path class="cls-2" d="M1255.37,1426c5.61,3.73,11.25,7.48,19.4,8.41,26.13,3,53.28-25.94,61.53-54.73,8.61-30.06-4.61-55.84-7.53-61.23-16.72-30.78-53.24-51.15-91-46.63-48,5.74-80.25,49.6-80.89,83.09-.39,20.14,10.46,45.6,16.41,59.56,10.35,24.29,18.61,32.4,14.62,40.92-8.28,17.69-53.09,2.59-60.91,18.4-6.9,13.93,16.46,48.87,48.37,55.25,29.89,6,65.44-13.47,71.53-38.22,10-40.68-65.94-69.76-58.26-122.94,3.16-21.85,19.44-40.76,38-48.55,32.51-13.65,72.24,6.82,71.6,17-.81,12.71-64.91,5.87-74.15,33.53C1218.17,1387.47,1236.58,1413.48,1255.37,1426Z"/><path class="cls-2" d="M1122.06,1545.15c-8.2,11.47-27.11,12.73-37.67,4.62-14.87-11.43-11.73-40.43,2.26-47.61,11.4-5.84,29.88,2.88,36.43,16.93C1123.57,1520.14,1129.88,1534.22,1122.06,1545.15Z"/></g><g class="cls-1"><path class="cls-2" d="M1029.24,1314c2.08-4.85,4.17-9.71,3.74-16.11-1.4-20.5-27.44-37.31-50.73-39.6-24.33-2.39-42.29,11.4-46,14.41-21.31,17.18-31.83,48.13-23,76.52,11.17,36.11,49.42,54.71,75.26,50.49,15.54-2.53,33.59-14.46,43.48-21,17.22-11.38,22.29-18.87,29.41-17,14.75,3.87,9.45,40.44,22.71,44.23,11.68,3.34,35.25-19.53,35.67-45,.39-23.83-19.57-48.42-39.45-49.62-32.69-2-44.35,60.51-86.31,62.09-17.25.65-34.08-9.2-42.67-22.36-15.08-23.08-4.93-56.5,3-57.43,9.89-1.17,13.65,49.07,36.22,52.28C1004.88,1348,1022.28,1330.21,1029.24,1314Z"/><path class="cls-2" d="M1139.62,1399.71c10,4.69,13.6,19.06,8.85,28.31-6.69,13-29.43,14.71-36.91,5-6.1-7.94-2-23.37,7.88-30.39C1120.18,1402.07,1130.12,1395.24,1139.62,1399.71Z"/></g><g class="cls-1"><path class="cls-2" d="M1024.74,1486.06c2,2.28,4.09,4.57,7.56,5.9,11.13,4.26,26.32-5.33,33.21-17,7.19-12.21,4.32-25,3.65-27.72a42,42,0,0,0-34.63-30.8c-21.72-2.93-40.84,12.66-44.93,27.28-2.46,8.79-.59,21.19.44,28,1.78,11.84,4.48,16.34,1.76,19.62-5.64,6.82-23.58-4.89-28.81,1.15-4.61,5.34,1.67,23.32,15,29.74,12.43,6,30.24,1.52,35.73-8.64,9-16.72-21-38.1-11.61-60.56,3.87-9.23,13.16-15.68,22.18-17,15.82-2.3,30.92,11.19,29.49,15.57-1.8,5.48-29.15-4.8-36.34,6.29C1012.79,1464.94,1017.91,1478.45,1024.74,1486.06Z"/><path class="cls-2" d="M952.72,1523.22c-4.9,4.1-13.35,2.5-17.06-2.25-5.23-6.71-.55-19.08,6.4-20.64,5.66-1.27,12.78,4.66,14.06,11.57C956.22,1512.41,957.39,1519.31,952.72,1523.22Z"/></g><g class="cls-1"><path class="cls-2" d="M211.26,1279.21c-5,0-10,0-15.34,2.76-17.24,8.84-22.12,37.66-15.43,58.69,7,22,25.61,32.4,29.61,34.51,22.82,12.07,53.55,9.67,74.88-8.51,27.13-23.12,29-63.19,15.73-84-8-12.52-25-23.72-34.37-29.86-16.27-10.68-24.65-12.29-25.68-19.15-2.13-14.23,31.53-23.25,29.88-36.14-1.45-11.37-30-23.28-52.23-14.18-20.79,8.53-34.67,35-28.31,52.65,10.45,29.06,68.94,15.91,85.92,51.68,7,14.7,4.71,32.95-3.49,45.29-14.38,21.65-47.12,25.3-50.86,18.82-4.7-8.13,37.44-30.09,31.82-50.84C249.8,1287.66,227.89,1279.21,211.26,1279.21Z"/><path class="cls-2" d="M244.44,1151.67c.35-10.38,11.45-18.88,21.23-18.21,13.8,1,23.7,20,18.05,30.14-4.61,8.24-19.51,10.43-29.27,4.48C253.72,1167.64,244.1,1161.57,244.44,1151.67Z"/></g><g class="cls-1"><path class="cls-2" d="M1801.7,1598.93c-4.91-3.53-9.84-7.07-17.1-8.16-23.29-3.49-48.54,21.5-56.85,47-8.68,26.64,2.32,50.14,4.76,55.06,14,28.09,46,47.51,80,44.68,43.17-3.59,73.43-41.81,75.09-71.77,1-18-7.89-41.16-12.76-53.84-8.49-22.09-15.62-29.61-11.77-37.11,8-15.56,47.61-.6,55.12-14.5,6.62-12.25-13.15-44.28-41.51-51-26.57-6.32-59,9.94-65.28,31.9-10.28,36.09,56.79,64.58,48.19,111.93-3.53,19.46-18.71,35.87-35.56,42.24-29.55,11.17-64.45-8.44-63.55-17.49,1.13-11.36,58.29-3.16,67.46-27.63C1833.75,1634.59,1818.11,1610.72,1801.7,1598.93Z"/></g><g class="cls-1"><path class="cls-2" d="M1930.2,1862.84c-3.2,2.63-6.42,5.28-8.42,9.91-6.43,14.83,5.7,36,21.15,46,16.13,10.46,33.66,7.31,37.36,6.55,21.1-4.31,39.63-22.14,43.74-45.15,5.23-29.27-14.78-56.09-34.36-62.47-11.78-3.84-28.7-2-38-1-16.15,1.73-22.4,5.14-26.69,1.26-8.92-8,8-31.69.1-39.12-7-6.55-31.69.92-41.17,18.54-8.87,16.51-3.81,40.9,9.65,48.92,22.13,13.19,52.86-26.27,82.75-12.22,12.29,5.78,20.49,18.74,21.75,31,2.2,21.57-17,41.26-22.81,39.07-7.34-2.75,8.18-39.23-6.43-49.62C1959.51,1847.87,1940.92,1854,1930.2,1862.84Z"/><path class="cls-2" d="M1884,1763.08c-5.27-6.88-2.62-18.23,4-23,9.39-6.71,25.89.35,27.59,9.86,1.4,7.75-7,17-16.48,18.39C1898.45,1768.45,1889,1769.63,1884,1763.08Z"/></g><g class="cls-1"><path class="cls-2" d="M1825.64,1819c2.14,1.43,4.29,2.87,7.4,3.23,10,1.16,20.37-9.85,23.55-20.84,3.31-11.47-1.71-21.33-2.82-23.39a35.38,35.38,0,0,0-34.71-17.89c-18.34,2.15-30.68,18.87-31,31.65-.17,7.69,4,17.43,6.21,22.76,3.93,9.29,7.08,12.39,5.54,15.64-3.17,6.75-20.27.94-23.27,7-2.65,5.32,6.24,18.68,18.42,21.14,11.41,2.31,25-5.08,27.35-14.52,3.86-15.53-25.12-26.7-22.13-47a24.74,24.74,0,0,1,14.54-18.51c12.43-5.18,27.58,2.67,27.33,6.54-.32,4.86-24.79,2.19-28.35,12.74C1811.47,1804.28,1818.48,1814.23,1825.64,1819Z"/><path class="cls-2" d="M1774.63,1864.4c-3.14,4.37-10.37,4.84-14.39,1.73-5.67-4.38-4.44-15.45.91-18.17,4.35-2.22,11.4,1.12,13.89,6.49C1775.23,1854.85,1777.62,1860.24,1774.63,1864.4Z"/></g><g class="cls-1"><path class="cls-2" d="M1689.57,1916c-2.92,0-5.85,0-9,1.62-10.13,5.19-13,22.12-9.06,34.47,4.1,12.9,15,19,17.39,20.27a40.12,40.12,0,0,0,44-5c15.93-13.58,17-37.11,9.24-49.34-4.69-7.35-14.7-13.93-20.19-17.53-9.56-6.28-14.48-7.22-15.08-11.25-1.25-8.36,18.52-13.66,17.55-21.23-.86-6.68-17.65-13.67-30.68-8.32-12.21,5-20.36,20.54-16.63,30.92,6.14,17.06,40.49,9.34,50.47,30.35,4.1,8.63,2.76,19.35-2,26.6-8.45,12.71-27.68,14.86-29.88,11.05-2.75-4.78,22-17.67,18.69-29.86C1712.21,1921,1699.34,1916,1689.57,1916Z"/><path class="cls-2" d="M1709.06,1841.12c.2-6.1,6.72-11.09,12.47-10.7,8.1.56,13.92,11.77,10.59,17.7-2.7,4.84-11.45,6.13-17.18,2.63C1714.51,1850.49,1708.86,1846.93,1709.06,1841.12Z"/></g><g class="cls-1"><path class="cls-2" d="M1882.94,1932.59c2.59-3,5.18-5.93,6.34-10.56,3.7-14.86-10.92-32.74-26.9-39.69-16.7-7.27-32.59-1.6-35.93-.32-19,7.3-33.58,26.83-33.85,49-.35,28.16,22.51,50.11,41.8,53,11.59,1.76,27.12-2.56,35.63-4.93,14.81-4.12,20.12-8.27,24.74-5.32,9.57,6.13-2.56,30.84,6,36.56,7.52,5.05,29.47-5.77,35.59-23.7,5.73-16.81-2.79-38.81-16.61-44.21-22.72-8.89-45.3,32.75-75.41,24.26-12.38-3.49-22-14.33-25.13-25.63-5.41-19.81,9.44-41.18,15.24-40,7.28,1.44-1.56,37.92,13.71,45.36C1857.88,1951.13,1874.3,1942.48,1882.94,1932.59Z"/><path class="cls-2" d="M1941.57,2018.63c6,5.6,5.29,16.62-.2,22.09-7.73,7.72-24.24,3.69-27.31-4.93-2.5-7,3.94-17,12.55-19.74C1927.25,2015.85,1935.86,2013.28,1941.57,2018.63Z"/></g><g class="cls-1"><path class="cls-2" d="M1747.09,2077.65c-3.84.74-7.7,1.49-11.44,4.43-12,9.42-11.46,32.43-3.15,47.68,8.69,15.94,24.66,21.21,28.06,22.25,19.45,5.91,42.85-.55,56.62-17.79,17.51-21.94,13-53.2-.42-67.3-8-8.49-22.9-14.59-31-17.94-14.18-5.82-20.9-5.81-22.72-11-3.78-10.68,20.89-22.7,17.69-32.42-2.83-8.57-26.71-13.49-42.5-3.13-14.8,9.7-21.57,32.22-14,44.94,12.43,20.9,55.68,2,74.17,27.08,7.6,10.32,8.57,24.77,4.08,35.54-7.88,18.89-32.64,26.61-36.51,22.16-4.84-5.58,24.44-28.87,17-44.07C1778.15,2078.41,1760,2075.16,1747.09,2077.65Z"/><path class="cls-2" d="M1753.65,1974.08c-1.28-8.08,6-16.3,13.69-17.25,10.8-1.34,21.32,11.94,18.46,20.6-2.33,7.06-13.52,11-22,7.84C1763.21,1985,1754.87,1981.79,1753.65,1974.08Z"/></g><g class="cls-1"><path class="cls-2" d="M1600.44,1970c3.7,2.44,7.42,4.89,12.78,5.48,17.17,1.88,35-17.19,40.29-36.13,5.58-19.78-3.17-36.69-5.11-40.22-11.06-20.19-35.12-33.48-59.93-30.42-31.54,3.9-52.61,32.81-52.94,54.83-.21,13.23,7,29.94,10.94,39.1,6.86,15.94,12.31,21.25,9.71,26.86-5.4,11.64-34.88,1.83-40,12.24-4.5,9.18,10.94,32.08,31.93,36.19,19.66,3.86,43-9,46.92-25.3,6.48-26.77-43.53-45.68-38.61-80.65,2-14.37,12.66-26.84,24.83-32,21.33-9.06,47.5,4.29,47.1,11-.49,8.36-42.64,4-48.64,22.23C1575.89,1944.83,1588.06,1961.88,1600.44,1970Z"/><path class="cls-2" d="M1513.14,2048.71c-5.36,7.56-17.79,8.44-24.75,3.14-9.81-7.48-7.81-26.55,1.36-31.3,7.48-3.87,19.64,1.81,24,11C1514.07,2032.27,1518.25,2041.51,1513.14,2048.71Z"/></g><g class="cls-1"><path class="cls-2" d="M1586,2206c-7.07,0-14.16,0-21.8,3.92-24.5,12.57-31.43,53.52-21.93,83.41,9.92,31.22,36.4,46,42.08,49,32.42,17.15,76.09,13.73,106.4-12.1,38.56-32.86,41.22-89.8,22.37-119.38-11.34-17.79-35.57-33.7-48.85-42.43-23.12-15.18-35-17.46-36.49-27.21-3-20.22,44.8-33,42.46-51.36-2.07-16.16-42.69-33.08-74.22-20.15-29.55,12.12-49.27,49.7-40.23,74.82,14.84,41.3,98,22.6,122.1,73.43,9.92,20.9,6.69,46.83-5,64.37-20.44,30.76-67,36-72.28,26.74-6.68-11.56,53.2-42.76,45.22-72.25C1640.73,2218,1609.59,2206,1586,2206Z"/><path class="cls-2" d="M1633.11,2024.8c.5-14.76,16.27-26.83,30.17-25.88,19.61,1.34,33.68,28.47,25.64,42.83-6.55,11.71-27.72,14.82-41.59,6.37C1646.29,2047.48,1632.63,2038.86,1633.11,2024.8Z"/></g><g class="cls-1"><path class="cls-2" d="M1854.48,2178.87c-3.89-1-7.79-2-12.57-1-15.3,3.36-25.05,24.89-24.15,42.72.94,18.61,13.36,30.6,16,33.08,15.35,14.13,39.88,18.58,60.3,8.76,26-12.49,35.7-43.44,29.61-62.45-3.66-11.43-14.69-23.7-20.74-30.42-10.52-11.71-16.74-14.69-16.13-20.27,1.27-11.56,29.44-11.68,30.81-22.1,1.2-9.19-18.7-24.39-37.93-21.84-18,2.38-34.3,20.2-33,35.33,2.18,24.88,50.63,26.64,56.54,58.11,2.43,12.93-3.1,26.73-12.06,34.69-15.7,14-42,10.08-43.64,4.24-2-7.32,35.47-15.82,35.35-33.2C1882.87,2193.42,1867.48,2182.3,1854.48,2178.87Z"/><path class="cls-2" d="M1906.69,2086c2.41-8.05,12.83-12.41,20.35-9.87,10.59,3.58,14.4,20.55,7.9,27.28-5.3,5.5-17.4,4.14-23.81-2.52C1910.65,2100.37,1904.38,2093.65,1906.69,2086Z"/></g><g class="cls-1"><path class="cls-2" d="M10.9,2060.71c-6.4,0-12.82,0-19.75,3.55-22.19,11.38-28.47,48.48-19.86,75.55,9,28.28,33,41.7,38.12,44.42,29.37,15.54,68.92,12.44,96.38-11,34.92-29.76,37.34-81.34,20.26-108.13-10.27-16.11-32.22-30.53-44.25-38.43-20.94-13.76-31.73-15.82-33-24.65-2.75-18.32,40.58-29.93,38.46-46.53-1.88-14.63-38.67-30-67.23-18.24-26.76,11-44.63,45-36.45,67.76,13.45,37.41,88.75,20.48,110.61,66.52,9,18.93,6.06,42.42-4.5,58.31-18.51,27.86-60.65,32.56-65.47,24.21-6-10.47,48.19-38.73,41-65.44C60.51,2071.59,32.31,2060.71,10.9,2060.71Z"/><path class="cls-2" d="M53.61,1896.54c.45-13.36,14.74-24.3,27.33-23.43,17.76,1.21,30.51,25.78,23.23,38.79-5.94,10.61-25.11,13.43-37.68,5.77C65.55,1917.1,53.18,1909.29,53.61,1896.54Z"/></g><g class="cls-1"><path class="cls-2" d="M1506.47,1800.34c-2.31,3.24-4.63,6.49-5.34,11.27-2.25,15.33,14.23,31.89,31,37.31,17.54,5.66,33-1.62,36.21-3.24,18.45-9.24,31.17-30.35,29.25-52.68-2.44-28.39-27.64-48.23-47.36-49.27-11.85-.62-27.06,5.27-35.4,8.5-14.51,5.62-19.45,10.33-24.39,7.81-10.25-5.22-.48-31.32-9.64-36.23-8.07-4.34-29.1,8.73-33.49,27.4-4.1,17.49,6.66,38.8,21.11,42.88,23.77,6.7,42.38-37.47,73.55-31.9,12.81,2.28,23.63,12.24,27.85,23.31,7.4,19.42-5.43,42.42-11.39,41.84-7.47-.72-2.18-38.34-18.3-44.33C1529.87,1779.19,1514.19,1789.52,1506.47,1800.34Z"/><path class="cls-2" d="M1438.89,1719.5c-6.6-5.06-7-16.22-2-22.28,7-8.54,24-6.11,28,2.26,3.22,6.83-2.28,17.54-10.68,21.13C1453.59,1720.88,1445.17,1724.32,1438.89,1719.5Z"/></g><g class="cls-1"><path class="cls-2" d="M1462.07,2204.92c-3.27-.88-6.55-1.76-10.57-.89-12.9,2.77-21.19,20.85-20.5,35.86.71,15.67,11.12,25.82,13.37,27.91a46.46,46.46,0,0,0,50.73,7.62C1517,2265,1525.33,2239,1520.28,2223c-3-9.64-12.27-20-17.33-25.7-8.81-9.89-14-12.43-13.5-17.12,1.11-9.73,24.83-9.72,26-18.49,1-7.73-15.65-20.6-31.84-18.54-15.17,1.94-29,16.88-27.9,29.62,1.74,21,42.51,22.63,47.37,49.14,2,10.9-2.72,22.5-10.29,29.16-13.28,11.7-35.45,8.32-36.77,3.39-1.65-6.17,29.93-13.17,29.9-27.8C1485.92,2217.28,1473,2207.86,1462.07,2204.92Z"/><path class="cls-2" d="M1506.4,2126.93c2.06-6.77,10.86-10.39,17.17-8.23,8.9,3.06,12,17.36,6.54,23-4.48,4.61-14.66,3.42-20-2.22C1509.68,2139.06,1504.43,2133.38,1506.4,2126.93Z"/></g><g class="cls-1"><path class="cls-2" d="M1652,1677.85c2.43-3.13,4.87-6.28,5.76-11,2.86-15.19-12.92-32.35-29.44-38.42-17.26-6.33-32.94.31-36.22,1.8-18.77,8.48-32.27,29-31.24,51.35,1.31,28.39,25.64,49.16,45.25,51,11.79,1.09,27.18-4.18,35.62-7.07,14.68-5,19.79-9.52,24.62-6.81,10,5.61-.76,31.23,8.17,36.49,7.87,4.64,29.35-7.56,34.46-26,4.79-17.27-5.09-38.94-19.34-43.57-23.42-7.62-43.72,35.67-74.56,28.89-12.68-2.79-23.07-13.14-26.84-24.34-6.61-19.65,7.09-42.06,13-41.25,7.42,1,.67,38.3,16.49,44.9C1627.85,1698,1643.88,1688.33,1652,1677.85Z"/><path class="cls-2" d="M1716.17,1761.1c6.37,5.3,6.3,16.44,1.09,22.28-7.34,8.23-24.21,5.15-27.81-3.36-2.94-6.93,3-17.39,11.48-20.63C1701.57,1759.14,1710.09,1756.05,1716.17,1761.1Z"/></g><g class="cls-1"><path class="cls-2" d="M1405.27,1929.21c-3.26-2.18-6.54-4.37-11.28-4.92-15.2-1.76-31,15-35.89,31.76-5,17.49,2.6,32.51,4.3,35.65,9.68,17.94,30.91,29.85,52.89,27.27,28-3.27,46.78-28.75,47.2-48.24.26-11.72-6-26.56-9.47-34.69-6-14.16-10.78-18.89-8.45-23.84,4.85-10.28,30.9-1.43,35.48-10.62,4-8.1-9.51-28.47-28.07-32.23-17.39-3.52-38.11,7.75-41.69,22.14-5.9,23.67,38.28,40.7,33.73,71.64-1.87,12.71-11.37,23.7-22.17,28.2-18.94,7.9-42-4.07-41.65-10,.49-7.4,37.79-3.32,43.2-19.41C1426.87,1951.67,1416.19,1936.51,1405.27,1929.21Z"/><path class="cls-2" d="M1483,1860c4.79-6.66,15.8-7.37,21.93-2.64,8.65,6.68,6.77,23.55-1.38,27.71-6.64,3.38-17.38-1.72-21.18-9.9C1482.11,1874.59,1478.46,1866.39,1483,1860Z"/></g><g class="cls-1"><path class="cls-2" d="M1478.3,1490.15c-5.4-4.94-10.83-9.89-19.41-12.23-27.53-7.5-61.44,19-75,48.49-14.21,30.82-4.31,60.66-2.06,66.92,12.83,35.77,48.63,63.66,89.87,65.07,52.44,1.79,94.26-39.91,100.49-75.72,3.75-21.53-3.67-50.64-7.74-66.59-7.08-27.76-14.6-37.83-8.9-46.31,11.81-17.59,57.36,6,68.36-9.64,9.7-13.8-9.56-55.13-42.72-67.25-31.07-11.37-72.41,3.61-83,29.14-17.49,42,59.17,85.73,42.13,141.48-7,22.91-27.59,40.5-48.76,45.78-37.13,9.26-76.35-19.27-74-30,3-13.51,70.58,4.45,85.07-23.69C1511.82,1537.59,1496.39,1506.65,1478.3,1490.15Z"/><path class="cls-2" d="M1641,1384.41c10.69-10.94,31.19-9.16,41.16,1.28,14.06,14.72,5.89,45.3-10.3,50.68-13.19,4.38-31.56-8-36.27-24.18C1635.22,1411,1630.79,1394.84,1641,1384.41Z"/></g><g class="cls-1"><path class="cls-2" d="M1810.4,1436.79c5.73,2.54,11.49,5.09,19.1,4.66,24.39-1.39,44.73-32.12,47.77-59.78,3.17-28.89-13-50.43-16.51-54.91-20.14-25.57-56.79-38.49-90.67-28.43-43.09,12.8-65.72,58-61,88.81,2.8,18.5,16.74,40.12,24.38,52,13.29,20.63,22.13,26.76,19.81,35.2-4.81,17.49-48.22,10.7-52.9,26.4-4.13,13.85,22.74,42.18,53,43,28.32.79,57.83-22.61,59.53-46.23,2.8-38.84-71.36-53.55-72.66-103.46-.54-20.52,11.4-40.4,27.16-50.44,27.64-17.61,67.24-5.09,68.25,4.3,1.26,11.77-58.53,15.56-62.66,42.35C1770.29,1407.36,1791.23,1428.3,1810.4,1436.79Z"/><path class="cls-2" d="M1707,1566.87c-5.71,11.8-22.84,15.92-33.78,10.15-15.42-8.14-17.09-35.2-5.41-44,9.53-7.14,27.82-2.06,36,9.78C1704.47,1543.73,1712.45,1555.64,1707,1566.87Z"/></g><g class="cls-1"><path class="cls-2" d="M106.26,1482.74c5.34,3.55,10.7,7.12,18.44,8,24.83,2.82,50.63-24.64,58.47-52,8.18-28.58-4.38-53.07-7.16-58.19-15.88-29.25-50.59-48.6-86.47-44.31-45.63,5.45-76.25,47.13-76.86,79-.37,19.14,9.94,43.34,15.59,56.6,9.84,23.08,17.69,30.79,13.9,38.89-7.87,16.8-50.45,2.45-57.88,17.47-6.55,13.25,15.64,46.44,46,52.51,28.41,5.68,62.19-12.81,68-36.32,9.53-38.66-62.66-66.29-55.36-116.82,3-20.76,18.47-38.74,36.08-46.13,30.9-13,68.65,6.47,68,16.11-.76,12.08-61.67,5.57-70.45,31.86C70.92,1446.16,88.41,1470.87,106.26,1482.74Z"/></g><g class="cls-1"><path class="cls-2" d="M104.57,1731.81c2-4.6,4-9.22,3.55-15.3-1.33-19.48-26.08-35.45-48.21-37.63-23.11-2.27-40.18,10.83-43.72,13.69C-4.06,1708.9-14,1738.3-5.71,1765.28c10.62,34.31,47,52,71.52,48,14.76-2.41,31.91-13.74,41.31-20,16.37-10.81,21.18-17.93,27.94-16.16,14,3.69,9,38.44,21.58,42,11.11,3.17,33.5-18.56,33.9-42.72.37-22.64-18.59-46-37.48-47.15-31.06-1.88-42.15,57.5-82,59-16.39.62-32.38-8.74-40.55-21.24-14.32-21.93-4.68-53.69,2.81-54.58,9.4-1.11,13,46.63,34.42,49.68C81.42,1764.13,98,1747.21,104.57,1731.81Z"/><path class="cls-2" d="M209.45,1813.25c9.48,4.46,12.93,18.11,8.42,26.9-6.37,12.4-28,14-35.08,4.72-5.8-7.55-1.9-22.21,7.49-28.88C191,1815.49,200.42,1809,209.45,1813.25Z"/></g><g class="cls-1"><path class="cls-2" d="M1426.46,1298.57c-4.73,0-9.47,0-14.58,2.62-16.39,8.41-21,35.79-14.67,55.78,6.64,20.87,24.35,30.78,28.14,32.79,21.68,11.47,50.88,9.18,71.15-8.09,25.78-22,27.57-60.05,15-79.83-7.58-11.89-23.79-22.54-32.67-28.37-15.46-10.15-23.42-11.68-24.39-18.2-2-13.52,29.95-22.09,28.39-34.34-1.39-10.8-28.55-22.12-49.64-13.47-19.75,8.1-32.94,33.23-26.9,50,9.93,27.61,65.51,15.11,81.65,49.1,6.63,14,4.48,31.31-3.32,43-13.67,20.57-44.77,24-48.33,17.88-4.46-7.73,35.58-28.59,30.24-48.31C1463.08,1306.6,1442.26,1298.57,1426.46,1298.57Z"/><path class="cls-2" d="M1458,1177.38c.34-9.86,10.88-17.94,20.18-17.3,13.11.9,22.52,19,17.14,28.64-4.38,7.83-18.53,9.91-27.81,4.26C1466.8,1192.55,1457.66,1186.79,1458,1177.38Z"/></g><g class="cls-1"><path class="cls-2" d="M1340.69,1676.61c4.71-1.66,9.44-3.32,13.62-7.72,13.41-14.12,8.44-43.06-4.89-60.77-13.93-18.5-35.06-22.19-39.54-22.86-25.65-3.86-54,8.64-68.15,33-18,30.94-6.49,69.55,13,84.87,11.72,9.21,31.61,14.15,42.51,16.87,19,4.71,27.45,3.45,30.71,9.61,6.75,12.78-22.15,32.53-16.3,44.2,5.16,10.29,36.22,12.07,54.22-3.93,16.87-15,21.23-44.69,9.33-59.33-19.57-24.07-70.64,7.85-98.64-20.41-11.5-11.61-15.42-29.66-11.75-44.09,6.44-25.31,36.25-39.66,42-34.75,7.15,6.14-25.49,41-13.26,58.77C1301.34,1681.41,1324.92,1682.14,1340.69,1676.61Z"/><path class="cls-2" d="M1351.65,1808.54c3.12,10-4.57,21.7-14.07,24.32-13.39,3.69-29.13-11.1-27.13-22.57,1.63-9.34,15-16.37,26.26-14C1337.55,1796.49,1348.68,1799,1351.65,1808.54Z"/></g><g class="cls-1"><path class="cls-2" d="M1388.22,2157.61c3.7,2.44,7.42,4.9,12.77,5.48,17.18,1.88,35-17.18,40.3-36.12,5.58-19.79-3.17-36.7-5.11-40.23-11.06-20.19-35.12-33.48-59.93-30.41-31.54,3.9-52.61,32.81-53,54.82-.2,13.23,7,29.94,10.94,39.1,6.87,15.94,12.32,21.25,9.72,26.86-5.4,11.64-34.89,1.84-40,12.25-4.5,9.17,10.94,32.07,31.93,36.19,19.66,3.85,43-9,46.91-25.31,6.49-26.76-43.52-45.68-38.61-80.65,2-14.37,12.67-26.84,24.84-32,21.33-9.06,47.49,4.29,47.1,10.95-.5,8.36-42.64,4-48.65,22.24C1363.67,2132.41,1375.84,2149.45,1388.22,2157.61Z"/></g><g class="cls-1"><path class="cls-2" d="M437,1226.76c3.72-2.48,7.45-5,12.84-5.6,17.3-2,35.33,17.09,40.84,36.14,5.75,19.9-3,37-4.89,40.57-11,20.41-35.18,34-60.19,31-31.81-3.73-53.23-32.72-53.71-54.9-.29-13.34,6.86-30.22,10.78-39.47,6.81-16.11,12.27-21.49,9.61-27.13-5.51-11.7-35.16-1.62-40.36-12.08-4.59-9.22,10.82-32.39,31.94-36.67,19.79-4,43.36,8.82,47.43,25.19,6.71,26.93-43.56,46.31-38.38,81.51,2.12,14.47,12.93,27,25.22,32.1,21.56,9,47.84-4.63,47.4-11.35-.56-8.42-43-3.78-49.16-22.09C412.47,1252.32,424.62,1235.07,437,1226.76Z"/><path class="cls-2" d="M348.57,1148.05c-5.45-7.58-18-8.38-24.95-3-9.84,7.6-7.71,26.8,1.57,31.53,7.56,3.85,19.78-1.95,24.1-11.27C349.61,1164.61,353.76,1155.28,348.57,1148.05Z"/></g><g class="cls-1"><path class="cls-2" d="M1131.27,1239.2c1.84,3.26,3.68,6.53,3.86,11.08.56,14.58-16.55,28.41-32.82,31.79-17,3.52-30.71-4.85-33.57-6.7-16.34-10.51-26.11-31.56-22-52.27,5.16-26.33,30.76-42.35,49.31-41.33,11.16.62,24.8,7.67,32.28,11.54,13,6.73,17.16,11.63,22,9.77,10.13-3.85,3.62-29.26,12.69-32.94,8-3.24,26.36,11.12,28.58,29,2.08,16.79-10.15,35.65-24.1,38-22.92,3.87-35.88-39.37-65.62-37.31-12.22.85-23.36,9.07-28.43,19-8.89,17.43.79,40.25,6.43,40.32,7.07.08,5.92-35.67,21.61-39.65C1111.5,1217,1125.14,1228.28,1131.27,1239.2Z"/><path class="cls-2" d="M1202.71,1170.35c6.69-4.06,8.17-14.48,4.11-20.65-5.71-8.7-21.89-8.16-26.43-.71-3.7,6.06.36,16.64,7.86,20.85C1188.81,1170.16,1196.34,1174.23,1202.71,1170.35Z"/></g><g class="cls-1"><path class="cls-2" d="M1650.15,1226.4c3.87-2.59,7.75-5.19,13.37-5.84,18-2.09,36.81,17.81,42.55,37.66,6,20.73-3.08,38.54-5.09,42.26-11.49,21.27-36.65,35.38-62.71,32.33-33.15-3.88-55.46-34.09-56-57.2-.3-13.89,7.14-31.48,11.22-41.12,7.11-16.78,12.79-22.39,10-28.26-5.74-12.19-36.63-1.7-42-12.59-4.79-9.61,11.27-33.75,33.27-38.21,20.62-4.18,45.18,9.19,49.43,26.25,7,28.06-45.39,48.25-40,84.93,2.21,15.07,13.47,28.09,26.28,33.44,22.46,9.36,49.84-4.83,49.38-11.82-.58-8.78-44.8-3.94-51.22-23C1624.55,1253,1637.2,1235.05,1650.15,1226.4Z"/><path class="cls-2" d="M1558,1144.39c-5.68-7.9-18.73-8.74-26-3.13-10.25,7.92-8,27.93,1.64,32.85,7.87,4,20.61-2,25.11-11.74C1559.05,1161.64,1563.38,1151.92,1558,1144.39Z"/></g></g><g id="Layer_2" data-name="Layer 2"><text class="cls-3" transform="translate(210.25 408.71) rotate(-74.57)">A</text><text class="cls-3" transform="matrix(0.51, -0.86, 0.86, 0.51, 225.82, 347.61)">T</text><text class="cls-3" transform="translate(256.59 297.51) rotate(-47.65)"> </text><text class="cls-3" transform="matrix(0.83, -0.55, 0.55, 0.83, 272.17, 274.34)">N</text><text class="cls-3" transform="translate(334.91 229.89) rotate(-12.33)">O</text><text class="cls-3" transform="translate(417.35 215.29)">R<tspan x="73.21" y="0">T</tspan><tspan x="138.72" y="0">H</tspan><tspan x="227.05" y="0">E</tspan><tspan x="300.11" y="0">A</tspan><tspan x="373.32" y="0">S</tspan><tspan x="441.4" y="0">T</tspan><tspan x="506.94" y="0">E</tspan><tspan x="585.12" y="0">R</tspan><tspan x="663.34" y="0">N</tspan><tspan x="746.53" y="0">?</tspan></text><text class="cls-4" transform="translate(212.67 884.64) rotate(-90)">BA<tspan class="cls-5" x="153.84" y="0">N</tspan><tspan class="cls-6" x="242.17" y="0">K</tspan><tspan class="cls-7" x="315.37" y="0">S</tspan><tspan x="380.88" y="0">Y</tspan></text></g></svg>